<svg width="144" height="113" viewBox="0 0 144 113" fill="none" xmlns="http://www.w3.org/2000/svg">
<path d="M109.946 27.9359L117.578 28.7044C118.528 28.8296 119.602 28.9316 120.8 29.0103C121.998 29.089 123.196 29.1677 124.394 29.2464C127.116 29.3676 129.349 29.5431 131.091 29.7728L141.051 31.205C142.873 31.4451 143.706 32.1493 143.552 33.3177L142.782 39.1595C142.689 39.8605 142.474 40.268 142.137 40.382C141.889 40.4286 141.33 40.3945 140.459 40.2796C139.43 40.1439 138.524 39.9849 137.743 39.8027L130.157 38.6836C127.149 38.287 124.199 38.0565 121.307 37.9923L115.56 37.584C115.491 37.579 115.427 37.6227 115.406 37.6894L114.808 39.6316C114.424 41.3243 114.165 42.6769 114.031 43.6895L112.542 54.0723L111.637 60.0153L111.287 62.6706C111.276 62.7528 111.334 62.8282 111.416 62.8389C113.004 63.0459 114.187 63.1622 114.965 63.1879L120.681 63.8227L125.447 64.3322C126.565 64.4005 128.114 64.5651 130.094 64.8261C131.361 64.9931 132.171 65.2585 132.526 65.6223C132.96 65.9965 133.131 66.5341 133.039 67.2351L132.411 71.075C132.329 71.6982 132.075 72.1005 131.648 72.2819C131.301 72.4738 130.573 72.4967 129.464 72.3506C128.039 72.1627 126.857 71.9671 125.917 71.764L121.182 71.0208L110.285 69.5841C110.203 69.5733 110.128 69.6314 110.117 69.7135C109.862 71.6627 109.713 73.0982 109.67 74.02L108.818 81.3963L107.945 87.1056C107.458 89.5772 107.127 91.4751 106.952 92.7993L105.253 106.602C105.12 107.614 104.79 108.284 104.263 108.611C103.816 108.948 103.117 109.054 102.167 108.929C101.771 108.877 100.871 108.679 99.4665 108.335C98.7642 108.163 97.3046 107.931 95.0876 107.639L86.4024 106.612C85.5543 106.423 85.0236 106.198 84.8106 105.937C84.8043 105.93 84.7991 105.921 84.7948 105.913C84.6725 105.66 84.6366 105.343 84.687 104.96C84.7487 104.492 84.7897 104.181 84.8103 104.025L85.5079 97.8172C85.6517 96.7267 85.7354 95.7868 85.7589 94.9974L86.6876 87.0369C86.8417 85.8685 87.0353 84.7054 87.2685 83.5475C87.5912 82.3221 87.7885 81.4368 87.8604 80.8916C88.3341 79.1314 88.7199 77.1219 89.0177 74.8631L90.6551 61.5281L91.7905 53.8325C92.4213 50.2704 92.8599 47.5547 93.1064 45.6853C93.6815 41.3234 94.3109 35.9385 94.9947 29.5306C95.1795 28.1286 95.4611 27.2147 95.8394 26.7891C96.2969 26.374 96.882 26.2134 97.5946 26.3073C98.0696 26.37 98.5395 26.4715 99.0043 26.6121C99.5483 26.763 100.177 26.8855 100.889 26.9795L109.946 27.9359Z" fill="#F95E1C"/>
<path d="M57.9141 53.6241C66.5446 52.65 77.8099 63.9024 78.8941 76.5236C80.4643 94.8025 64.3809 110.46 43.5891 112.807C19.659 115.507 2.76993 89.5096 0.339803 61.2207C-2.38942 29.4502 11.4237 3.50272 38.0999 0.49194C62.4223 -2.25319 72.9122 6.88954 73.8656 17.9875C74.8002 28.8678 69.3647 39.3685 55.6343 40.9182C36.4117 43.0877 28.6479 10.3474 19.4389 23.0317C12.3407 32.6215 22.9259 75.1503 36.8524 73.5785C47.8368 72.3388 44.7721 55.1074 57.9141 53.6241Z" fill="#F02F46"/>
</svg>
