<svg width="336" height="120" viewBox="0 0 336 120" fill="none" xmlns="http://www.w3.org/2000/svg">
<path d="M86.7869 74.623L90.1413 74.5188C90.5606 74.5188 91.0323 74.5014 91.5564 74.4666C92.0806 74.4319 92.6047 74.3971 93.1288 74.3624C94.3168 74.2582 95.2952 74.2061 96.0639 74.2061L100.467 74.2582C101.27 74.2582 101.672 74.5187 101.672 75.0399V77.6456C101.672 77.9582 101.602 78.1493 101.462 78.2188C101.358 78.2535 101.113 78.2709 100.729 78.2709C100.274 78.2709 99.8726 78.2535 99.5231 78.2188L96.1687 78.1667C94.8409 78.1667 93.5481 78.2362 92.2902 78.3751L89.9602 78.517C89.8208 78.5255 89.7057 78.6291 89.6826 78.7668L89.5648 79.4695C89.4949 80.2339 89.4599 80.8418 89.4599 81.2935L89.4075 85.9316L89.3551 88.5894V89.5401C89.3551 89.7058 89.4896 89.8403 89.6553 89.8391C90.2384 89.8348 90.68 89.8178 90.9799 89.788L93.4957 89.7359L95.5922 89.6838C96.0814 89.649 96.7627 89.6317 97.6363 89.6317C98.1954 89.6317 98.5622 89.7011 98.7369 89.8401C98.9466 89.9791 99.0514 90.2049 99.0514 90.5176L98.999 92.2373C98.999 92.5153 98.9117 92.7063 98.7369 92.8106C98.5972 92.9148 98.2827 92.9669 97.7935 92.9669C97.1646 92.9669 96.6404 92.9495 96.2211 92.9148L94.1247 92.8627H89.5503C89.3846 92.8627 89.2502 92.9972 89.251 93.1628C89.2545 93.9137 89.2718 94.4738 89.3027 94.843L89.3551 98.1262L89.3027 100.68C89.2328 101.791 89.1979 102.643 89.1979 103.233L89.2503 109.383C89.2503 109.834 89.1455 110.147 88.9358 110.321C88.7611 110.494 88.4641 110.581 88.0448 110.581C87.8701 110.581 87.4683 110.547 86.8393 110.477C86.5249 110.442 85.8784 110.425 84.9001 110.425L81.074 110.477C80.7145 110.445 80.4773 110.382 80.3623 110.288C80.347 110.276 80.3344 110.26 80.3244 110.243C80.265 110.142 80.2354 110.012 80.2354 109.852C80.2354 109.643 80.2354 109.504 80.2354 109.435L80.1829 106.673C80.1829 106.186 80.1655 105.769 80.1305 105.422L80.0781 101.878C80.0781 101.357 80.0956 100.836 80.1305 100.315C80.2004 99.759 80.2354 99.3595 80.2354 99.1163C80.3402 98.3172 80.3926 97.4139 80.3926 96.4064L80.3402 90.4655L80.3926 87.026C80.4625 85.4278 80.4974 84.2119 80.4974 83.378C80.4974 81.4325 80.4625 79.0353 80.3926 76.1864C80.3926 75.561 80.4625 75.1441 80.6022 74.9357C80.777 74.7272 81.0215 74.623 81.336 74.623C81.5457 74.623 81.7553 74.6403 81.965 74.6751C82.2096 74.7098 82.4891 74.7272 82.8036 74.7272L86.7869 74.623Z" fill="#F02F46"/>
<path d="M131.754 109.543C132.698 110.481 133.17 111.123 133.17 111.471C133.17 111.537 133.089 111.652 132.929 111.815C132.915 111.829 132.899 111.841 132.883 111.851C132.553 112.049 131.775 112.148 130.549 112.148C129.64 112.148 129.064 112.079 128.819 111.94C128.575 111.836 128.383 111.645 128.243 111.367C128.138 111.089 128.051 110.88 127.981 110.741C127.876 110.533 127.439 109.942 126.67 108.969C125.937 107.962 125.378 107.197 124.993 106.676C123.141 104.314 121.534 102.177 120.171 100.266C119.333 99.0851 117.778 97.0527 115.507 94.1691L114.668 93.1268L111.51 89.2137C111.342 89.005 111.005 89.1053 110.978 89.3721L110.842 90.7296C110.702 91.7719 110.667 93.0226 110.737 94.4818C110.842 95.4546 110.912 97.9734 110.947 102.038C110.982 106.103 110.999 109.074 110.999 110.95C110.999 111.506 110.789 111.853 110.37 111.992C109.951 112.166 109.462 112.252 108.903 112.252C108.658 112.252 108.501 112.148 108.431 111.94C108.363 111.737 108.312 111.519 108.277 111.284C108.275 111.269 108.274 111.255 108.274 111.241C108.274 111.01 108.274 110.861 108.274 110.793C108.204 110.237 108.169 109.421 108.169 108.344C108.169 107.649 108.186 107.128 108.221 106.781C108.256 104.904 108.309 101.639 108.379 96.9832C108.448 92.293 108.483 88.0892 108.483 84.3718C108.483 80.3764 108.431 78.0487 108.326 77.3886C108.291 77.1106 108.274 76.7458 108.274 76.2942C108.274 75.773 108.344 75.443 108.483 75.304C108.658 75.1651 108.903 75.0956 109.217 75.0956C109.916 75.0956 110.597 75.1129 111.261 75.1477L116.974 75.2519C119.071 75.2519 121.254 75.6167 123.526 76.3463C125.797 77.0759 126.932 78.4308 126.932 80.4111C126.932 82.2872 126.234 83.7464 124.836 84.7887C123.438 85.8309 121.866 86.5432 120.119 86.9253C118.407 87.3075 116.904 87.4986 115.611 87.4986C115.157 87.4986 114.913 87.4812 114.878 87.4465C115.087 87.6549 116.467 89.4963 119.018 92.9705C126.705 103.219 130.951 108.744 131.754 109.543ZM110.908 85.049C110.9 85.2196 111.037 85.362 111.208 85.3615C112.207 85.3586 112.976 85.3413 113.515 85.3098C115.542 85.2403 117.114 85.1014 118.232 84.8929C119.839 84.615 121.045 84.2328 121.848 83.7464C122.687 83.26 123.106 82.4957 123.106 81.4534C123.106 80.7586 122.739 80.1679 122.006 79.6816C121.272 79.1604 120.381 78.7783 119.333 78.5351C118.319 78.2571 117.428 78.1182 116.66 78.1182C115.786 78.0834 114.563 78.066 112.991 78.066H111.496C111.335 78.066 111.203 78.1926 111.196 78.3531L110.908 85.049Z" fill="#F95E1C"/>
<path d="M164.419 109.548C164.435 109.567 164.449 109.587 164.46 109.609C164.623 109.937 164.705 110.152 164.705 110.253C164.705 110.531 164.391 110.67 163.762 110.67H159.988C159.848 110.67 159.709 110.548 159.569 110.305C159.429 110.062 159.307 109.819 159.202 109.576C159.097 109.332 159.01 109.124 158.94 108.95C158.765 108.603 158.433 107.804 157.944 106.553C157.49 105.302 157.14 104.312 156.896 103.583C156.791 103.235 156.581 102.731 156.267 102.071C155.959 101.392 155.735 100.912 155.595 100.631C155.589 100.618 155.583 100.605 155.579 100.592C155.446 100.201 155.313 99.9346 155.181 99.7935C155.171 99.7832 155.162 99.7724 155.153 99.7615C155.047 99.6337 154.877 99.5698 154.642 99.5698C154.397 99.5698 154.083 99.5872 153.699 99.6219C153.356 99.656 152.98 99.6901 152.57 99.7241C152.554 99.7255 152.538 99.7281 152.522 99.7316C152.219 99.7974 151.354 99.8304 149.925 99.8304C148.912 99.8304 147.916 99.8651 146.937 99.9346C146.623 99.9693 146.064 99.9867 145.26 99.9867L142.482 99.9346C142.317 99.9346 142.183 99.997 142.08 100.122C142.068 100.136 142.059 100.151 142.051 100.167C141.987 100.302 141.939 100.468 141.906 100.664C141.871 100.838 141.836 100.977 141.801 101.081L141.486 102.384C141.382 102.87 141.242 103.444 141.067 104.104C140.927 104.729 140.805 105.32 140.7 105.876L140.124 108.116L139.704 109.628C139.6 110.045 139.495 110.323 139.39 110.462C139.32 110.566 139.198 110.618 139.023 110.618H135.931C135.756 110.618 135.669 110.548 135.669 110.409C135.669 110.34 135.739 110.097 135.878 109.68C136.158 109.02 136.402 108.36 136.612 107.699C137.905 103.391 138.674 100.577 138.918 99.2571C139.233 97.52 139.879 95.2791 140.858 92.5345C141.172 91.3532 141.469 90.2762 141.749 89.3034C141.853 88.817 142.011 88.2264 142.22 87.5316C142.884 85.0996 143.548 82.824 144.212 80.7047L145.522 76.5356C145.802 75.4586 146.151 74.3469 146.57 73.2004C146.775 72.6926 147.012 72.5642 147.283 72.8149C147.297 72.8283 147.313 72.8409 147.329 72.8524C147.526 72.9938 147.675 73.2314 147.776 73.5652C147.881 73.9126 147.951 74.1558 147.986 74.2948C148.09 74.7117 149.016 76.7962 150.763 80.5484C151.462 81.9728 152.214 83.8315 153.017 86.1245C153.367 87.132 154.328 89.3034 155.9 92.6387C156.704 94.2716 157.228 95.4007 157.472 96.0261C158.031 97.2421 159.534 100.195 161.98 104.885L162.609 106.188C163.397 107.927 164.001 109.047 164.419 109.548ZM150.711 92.3781C150.956 92.3434 151.165 92.326 151.34 92.326C151.515 92.326 151.654 92.3086 151.759 92.2739C151.864 92.2392 151.917 92.1871 151.917 92.1176C151.917 92.0481 151.864 91.9091 151.759 91.7007C151.585 91.388 151.183 90.5194 150.554 89.095C149.925 87.6358 149.488 86.5414 149.243 85.8118C148.894 84.978 148.615 84.2832 148.405 83.7273C148.23 83.1714 148.09 82.7893 147.986 82.5808C147.918 82.414 147.835 82.2472 147.736 82.0804C147.728 82.0666 147.721 82.0521 147.714 82.0373C147.648 81.874 147.581 81.7425 147.514 81.6428C147.444 81.5385 147.374 81.4864 147.304 81.4864C147.199 81.4864 147.077 81.747 146.937 82.2681C146.833 82.7893 146.745 83.1888 146.675 83.4667C146.046 85.4818 145.592 87.0105 145.313 88.0527C145.173 88.5739 144.963 89.2166 144.684 89.9809C144.439 90.7105 144.264 91.2143 144.159 91.4922C144.055 91.8396 144.002 92.1176 144.002 92.326C144.002 92.5345 144.159 92.6387 144.474 92.6387C145.208 92.6387 146.326 92.6213 147.828 92.5866C149.366 92.5171 150.327 92.4476 150.711 92.3781Z" fill="#D9D9D9"/>
<path d="M175.659 79.3731C176.427 79.3731 176.986 79.46 177.336 79.6337C177.72 79.7727 178.017 80.0332 178.227 80.4154C178.576 81.145 179.013 82.083 179.537 83.2295L181.476 87.3986L183.94 92.7663C184.394 93.7391 184.988 95.0245 185.722 96.6227C186.456 98.2208 186.98 99.3326 187.294 99.958C187.888 101.174 188.272 101.921 188.447 102.199L190.926 107.044C191.072 107.33 191.504 107.218 191.493 106.897L191.435 105.221L191.225 100.114V98.5509C191.225 96.6401 191.26 94.7119 191.33 92.7663C191.33 91.3071 191.312 90.1259 191.277 89.2226L191.225 85.262L191.435 80.2591C191.435 79.7379 191.697 79.4774 192.221 79.4774C192.396 79.4774 192.745 79.5295 193.269 79.6337C193.584 79.7032 193.916 79.7379 194.265 79.7379C194.614 79.7379 194.894 79.7379 195.104 79.7379C195.356 79.7379 195.524 79.7664 195.605 79.8233C195.621 79.8346 195.636 79.8473 195.652 79.8597C195.74 79.9312 195.785 80.047 195.785 80.207C195.785 80.3459 195.767 80.5023 195.733 80.676C195.698 80.8497 195.68 81.0408 195.68 81.2492L195.628 85.731L195.523 96.2579L195.47 97.7692C195.47 98.9504 195.488 100.027 195.523 101C195.558 101.973 195.593 102.772 195.628 103.397C195.732 104.891 195.785 106.142 195.785 107.15C195.785 107.011 195.837 109.078 195.942 113.351L196.047 116.269V116.374C196.047 117.057 195.726 117.371 195.084 117.315C195.062 117.313 195.041 117.308 195.02 117.303C194.907 117.274 194.708 117.26 194.422 117.26L192.902 117.312H192.588C192.353 117.312 192.167 117.264 192.029 117.168C192.017 117.16 192.006 117.151 191.997 117.14C191.889 117.024 191.702 116.734 191.435 116.269C191.33 116.026 191.19 115.679 191.015 115.227C190.841 114.776 190.631 114.272 190.386 113.716C188.884 109.964 187.801 107.41 187.137 106.055C186.368 104.596 184.429 100.41 181.319 93.4959C180.62 92.0715 179.834 90.5602 178.961 88.962L178.041 87.3227C177.887 87.0488 177.47 87.1651 177.48 87.479L177.598 91.2029L177.65 94.2776C177.72 96.5706 177.755 98.0819 177.755 98.8115C177.755 101.66 177.807 104.527 177.912 107.41L177.965 111.475C177.965 112.205 178 113.264 178.07 114.654L178.174 116.478V116.582C178.174 116.93 178.087 117.155 177.912 117.26C177.738 117.364 177.493 117.416 177.179 117.416L176.025 117.468C175.292 117.572 174.505 117.624 173.667 117.624C172.689 117.624 171.885 117.642 171.256 117.677L168.583 117.729C168.059 117.729 167.709 117.624 167.535 117.416C167.36 117.242 167.255 117.034 167.22 116.791C167.185 116.547 167.15 116.374 167.115 116.269C166.976 115.644 166.906 114.88 166.906 113.976C166.906 113.143 166.923 112.43 166.958 111.84C166.958 110.033 166.993 107.931 167.063 105.534C167.133 103.102 167.22 101.365 167.325 100.323L167.587 96.6227C168.006 90.8555 168.216 87.6071 168.216 86.8775C168.216 84.1328 168.268 82.083 168.373 80.7281C168.443 79.79 168.932 79.321 169.841 79.321C170.12 79.321 170.382 79.3384 170.627 79.3731C170.872 79.4079 171.064 79.4252 171.204 79.4252L175.659 79.3731Z" fill="#F02F46"/>
<path d="M212.523 73.6712C215.388 73.6712 217.554 74.1923 219.022 75.2346C220.489 76.2421 221.503 77.1801 222.062 78.0487C222.656 78.8825 223.023 79.4037 223.162 79.6121C223.512 80.0638 223.687 80.4112 223.687 80.6544C223.687 80.8628 223.617 81.0365 223.477 81.1755C223.337 81.3145 223.162 81.4361 222.953 81.5403C222.763 81.6347 222.63 81.7148 222.555 81.7807C222.54 81.7937 222.525 81.8063 222.509 81.8172C222.092 82.0957 221.542 82.5245 220.856 83.1037C220.542 83.3469 220.07 83.7117 219.441 84.1981C218.869 84.6331 218.475 84.907 218.26 85.0197C218.244 85.028 218.229 85.0374 218.214 85.0478C218.081 85.1414 217.949 85.1883 217.816 85.1883C217.572 85.1883 217.345 85.0493 217.135 84.7713C216.925 84.4934 216.786 84.3023 216.716 84.1981C216.646 84.0939 216.454 83.868 216.139 83.5206C215.86 83.1732 215.493 82.8779 215.039 82.6347C214.584 82.3915 214.078 82.2699 213.519 82.2699C212.47 82.2699 211.649 82.9474 211.055 84.3023C210.461 85.6573 210.164 88.0719 210.164 91.5461C210.164 93.8391 210.356 95.7152 210.741 97.1743C211.125 98.6335 211.579 99.6932 212.103 100.353C212.663 100.979 213.187 101.291 213.676 101.291C214.375 101.291 214.899 101.135 215.248 100.822C215.633 100.51 215.964 99.919 216.244 99.0504C216.524 98.2166 216.978 97.7997 217.607 97.7997C217.816 97.7997 218.044 97.8345 218.288 97.9039C218.568 97.9734 218.777 98.0255 218.917 98.0603C219.266 98.1992 220.123 98.4251 221.485 98.7378C222.848 99.0157 224.019 99.2415 224.997 99.4152C225.486 99.5195 225.731 99.9364 225.731 100.666C225.731 101.013 225.713 101.274 225.678 101.448C225.643 101.899 225.504 102.507 225.259 103.272C224.525 105.495 223.267 107.51 221.485 109.317C219.738 111.089 217.118 111.975 213.623 111.975C211.492 111.975 209.343 111.332 207.177 110.046C205.01 108.761 203.176 106.624 201.673 103.636C200.171 100.614 199.42 96.6532 199.42 91.7545C199.42 84.8061 200.765 80.0638 203.455 77.5276C206.146 74.9566 209.168 73.6712 212.523 73.6712Z" fill="#F95E1C"/>
<path d="M234.338 80.7586C234.233 81.5229 234.146 83.4858 234.076 86.6474C234.076 87.6202 234.006 90.0869 233.866 94.0475C233.726 97.8692 233.656 100.197 233.656 101.031C233.656 103.046 233.691 105.599 233.761 108.691C233.831 111.749 233.901 113.573 233.971 114.163C234.006 114.372 234.023 114.615 234.023 114.893C234.023 115.12 233.978 115.286 233.886 115.392C233.873 115.407 233.861 115.422 233.849 115.438C233.777 115.534 233.66 115.631 233.499 115.727C233.29 115.866 232.748 115.935 231.874 115.935C231.735 115.935 231.508 115.935 231.193 115.935C230.914 115.935 230.739 115.9 230.669 115.831C230.599 115.761 230.564 115.622 230.564 115.414L230.617 113.746L230.721 106.92L230.826 95.9757C230.826 94.9334 230.896 92.5709 231.036 88.8883C231.071 88.0197 231.123 86.6127 231.193 84.6671C231.262 82.7262 231.263 81.5696 231.197 81.1972C231.195 81.1824 231.193 81.1679 231.192 81.1529L231.141 80.0811C231.141 79.1778 231.42 78.7261 231.979 78.7261L233.919 78.7783C234.268 78.7783 234.443 79.0215 234.443 79.5078C234.443 79.6816 234.425 79.89 234.39 80.1332C234.355 80.3417 234.338 80.5501 234.338 80.7586Z" fill="#D9D9D9"/>
<path d="M252.04 71.2991C255.36 71.2991 258.085 71.9592 260.217 73.2794C262.383 74.5648 264.06 75.7982 265.248 76.9794C265.388 77.1184 265.458 77.2747 265.458 77.4484C265.458 77.5527 265.405 77.6916 265.301 77.8654C265.237 77.9909 265.189 78.0881 265.154 78.157C265.147 78.171 265.139 78.1844 265.13 78.1971C264.953 78.4436 264.661 78.8716 264.252 79.4809C263.868 80.0715 263.553 80.5058 263.309 80.7837C263.204 80.9227 263.082 81.079 262.942 81.2527C262.845 81.3809 262.749 81.4795 262.652 81.5486C262.636 81.5601 262.621 81.5729 262.605 81.585C262.533 81.6414 262.418 81.6696 262.261 81.6696C262.192 81.6696 262.023 81.5697 261.754 81.3697C261.742 81.3613 261.732 81.3519 261.721 81.342C261.482 81.1052 261.242 80.9017 261.003 80.7316C259.605 79.5156 258.242 78.4733 256.915 77.6048C255.587 76.7362 254.311 76.3019 253.088 76.3019C252.11 76.3019 251.306 76.5278 250.678 76.9794C250.049 77.3963 249.734 78.3691 249.734 79.8978C249.734 81.3917 250.293 82.5556 251.411 83.3894C252.529 84.2232 254.014 85.0223 255.866 85.7866C256.041 85.8561 257.054 86.2904 258.906 87.0894C260.793 87.8885 262.453 89.4172 263.885 91.6754C265.353 93.9337 266.087 96.6262 266.087 99.753C266.087 103.088 264.829 105.59 262.313 107.257C259.797 108.925 256.321 109.759 251.883 109.759C246.851 109.759 243.654 108.803 242.292 106.893C240.929 104.947 240.212 103.939 240.143 103.87C240.003 103.696 239.933 103.523 239.933 103.349C239.933 103.245 240.073 103.019 240.352 102.671C240.807 102.046 241.47 101.299 242.344 100.43C242.484 100.292 242.623 100.222 242.763 100.222C242.938 100.222 243.13 100.361 243.34 100.639C243.549 100.882 243.724 101.073 243.864 101.212C245.925 103.262 248.267 104.287 250.887 104.287C252.215 104.287 253.368 104.044 254.346 103.557C255.325 103.036 255.814 102.081 255.814 100.691C255.814 98.2938 253.91 95.7403 250.101 93.0304C249.472 92.6135 248.878 92.266 248.319 91.9881C246.851 91.189 245.594 90.4073 244.545 89.643C243.497 88.8787 242.571 87.8711 241.767 86.6204C240.964 85.3697 240.562 83.9105 240.562 82.2429C240.562 80.1583 241.208 78.2823 242.501 76.6146C243.829 74.947 245.401 73.6442 247.218 72.7061C249.07 71.7681 250.678 71.2991 252.04 71.2991Z" fill="#F02F46"/>
<path d="M283.781 81.6966C286.647 81.6966 288.813 82.2177 290.281 83.26C291.748 84.2675 292.761 85.2056 293.32 86.0741C293.914 86.9079 294.281 87.4291 294.421 87.6375C294.771 88.0892 294.945 88.4366 294.945 88.6798C294.945 88.8883 294.875 89.062 294.736 89.2009C294.596 89.3399 294.421 89.4615 294.211 89.5657C294.022 89.6601 293.889 89.7402 293.814 89.8061C293.799 89.8191 293.784 89.8317 293.768 89.8427C293.351 90.1212 292.8 90.55 292.115 91.1291C291.8 91.3723 291.329 91.7371 290.7 92.2235C290.128 92.6585 289.734 92.9324 289.518 93.0451C289.502 93.0534 289.487 93.0628 289.472 93.0732C289.34 93.1668 289.208 93.2137 289.075 93.2137C288.83 93.2137 288.603 93.0747 288.394 92.7968C288.184 92.5188 288.044 92.3277 287.974 92.2235C287.905 92.1193 287.712 91.8935 287.398 91.546C287.118 91.1986 286.751 90.9033 286.297 90.6601C285.843 90.4169 285.336 90.2953 284.777 90.2953C283.729 90.2953 282.908 90.9728 282.314 92.3277C281.72 93.6827 281.423 96.0973 281.423 99.5715C281.423 101.865 281.615 103.741 281.999 105.2C282.384 106.659 282.838 107.719 283.362 108.379C283.921 109.004 284.445 109.317 284.934 109.317C285.633 109.317 286.157 109.16 286.507 108.848C286.891 108.535 287.223 107.944 287.503 107.076C287.782 106.242 288.236 105.825 288.865 105.825C289.075 105.825 289.302 105.86 289.547 105.929C289.826 105.999 290.036 106.051 290.176 106.086C290.525 106.225 291.381 106.45 292.744 106.763C294.107 107.041 295.277 107.267 296.256 107.441C296.745 107.545 296.989 107.962 296.989 108.691C296.989 109.039 296.972 109.299 296.937 109.473C296.902 109.925 296.762 110.533 296.518 111.297C295.784 113.521 294.526 115.536 292.744 117.342C290.997 119.114 288.376 120 284.882 120C282.751 120 280.602 119.357 278.435 118.072C276.269 116.786 274.435 114.65 272.932 111.662C271.43 108.639 270.678 104.679 270.678 99.78C270.678 92.8315 272.024 88.0892 274.714 85.553C277.405 82.982 280.427 81.6966 283.781 81.6966Z" fill="#F95E1C"/>
<path d="M319.791 76.659C321.888 78.0486 323.565 79.9247 324.823 82.2872C326.116 84.6497 327.007 86.9601 327.496 89.2183C328.02 91.4418 328.282 93.1963 328.282 94.4818C328.282 96.6358 327.933 99.1372 327.234 101.986C326.57 104.835 325.12 107.493 322.883 109.959C320.647 112.391 317.415 113.607 313.187 113.607C307.387 113.607 303.264 110.255 300.818 103.55C299.735 100.527 299.123 97.1569 298.983 93.4395C298.983 90.3822 299.63 87.4812 300.923 84.7366C302.216 81.9572 303.91 79.7337 306.007 78.066C308.138 76.3984 310.322 75.5646 312.558 75.5646C314.585 75.5646 316.087 75.6167 317.066 75.7209C318.079 75.8251 318.987 76.1378 319.791 76.659ZM312.925 110.689C316.629 110.689 319.389 109.16 321.206 106.103C323.023 103.011 323.932 99.1372 323.932 94.4818C323.932 91.6329 323.495 89.0098 322.621 86.6126C321.783 84.1807 320.577 82.2525 319.005 80.828C317.468 79.3689 315.686 78.6393 313.659 78.6393C313.484 78.6393 313.012 78.6393 312.244 78.6393C311.51 78.6393 310.864 78.7609 310.305 79.0041C309.745 79.2473 309.239 79.6121 308.785 80.0984C307.631 81.2449 306.653 82.3046 305.849 83.2774C305.081 84.2154 304.295 85.6225 303.491 87.4986C302.722 89.3746 302.338 91.546 302.338 94.0128C302.338 96.9311 302.687 99.6584 303.386 102.195C304.12 104.696 305.273 106.746 306.845 108.344C308.418 109.907 310.444 110.689 312.925 110.689Z" fill="#D9D9D9"/>
<path d="M106.965 15.8546C113.967 15.8546 118.266 20.1294 118.758 33.6866C119.249 44.8011 123.18 51.2744 123.548 56.282C123.794 61.1675 118.021 64.2209 111.879 64.2209C105.736 64.2209 102.665 61.1675 102.665 56.282C102.665 47.8546 118.021 30.9996 103.894 30.9996C98.1204 30.9996 95.0493 35.763 95.4179 41.0149C95.9092 47.8545 96.7691 52.4958 96.7691 56.282C96.7691 61.1675 94.1895 64.2209 88.0475 64.2209C82.0283 64.2209 79.4486 61.1675 79.4486 56.282C79.4486 51.2744 81.0455 44.8011 81.0455 33.6866C81.0455 16.8317 76.9918 18.2974 76.9918 12.0684C76.9918 6.45009 85.8363 3.03026 90.5043 3.03026C95.1722 3.03026 96.7691 6.20581 96.7691 10.9692C96.7691 14.9997 95.5407 20.0073 95.295 27.4577C95.1722 28.8012 95.6636 28.3126 95.9092 27.7019C97.9975 22.9386 101.314 15.8546 106.965 15.8546Z" fill="#FFE6E3"/>
<path d="M156.723 34.342C163.479 34.342 167.778 40.4489 166.795 44.6015C164.953 51.6855 156.845 56.3267 147.632 56.3267C133.751 56.3267 125.153 46.1893 125.153 31.2886C125.153 14.0673 137.437 6.37265 148.124 6.37265C160.039 6.37265 166.795 14.678 166.795 20.1741C166.795 32.7542 150.949 31.1665 143.456 35.9298C140.016 38.1283 140.63 41.9145 144.316 41.9145C147.141 41.9145 148.984 34.342 156.723 34.342ZM145.644 16.8725C145.6 16.576 145.142 16.4711 144.967 16.7146C143.995 18.0688 141.76 20.583 138.355 20.9538C138.073 20.9845 137.929 21.3784 138.116 21.592C140.172 23.9469 140.16 28.2916 139.961 30.7268C139.934 31.0641 140.526 31.2794 140.724 31.0043C142.109 29.0729 144.894 25.8501 148.577 24.9324C148.83 24.8694 148.919 24.5265 148.735 24.3424C146.678 22.2936 145.907 18.6425 145.644 16.8725Z" fill="#FFE6E3"/>
<path d="M260.915 22.5953C260.915 29.6793 252.316 33.9541 244.823 35.9083C244.085 36.0304 244.208 36.3968 244.823 36.519C249.736 37.6182 260.915 40.1831 260.915 50.1983C260.915 55.0838 258.212 61.1906 250.842 61.1906C243.226 61.1906 239.54 55.4502 239.54 49.0991C239.54 44.7021 241.26 37.0075 235.978 37.0075C233.521 37.0075 233.398 39.5724 233.521 40.6716C234.013 46.1678 234.75 50.0762 234.75 53.2517C234.75 58.1372 232.17 61.1906 226.028 61.1906C220.009 61.1906 217.429 58.1372 217.429 53.2517C217.429 48.2441 219.026 41.7708 219.026 30.6564C219.026 13.8015 214.972 15.2671 214.972 9.03814C214.972 3.41984 223.817 0 228.485 0C233.153 0 234.75 3.17556 234.75 7.9389C234.75 12.3358 233.767 17.832 233.153 26.3816C233.03 29.0686 234.013 30.4121 235.978 29.6793C243.348 26.8701 236.347 12.8244 248.508 12.8244C256.247 12.8244 260.915 17.4656 260.915 22.5953Z" fill="#FFE6E3"/>
<path d="M198.868 43.1651C213.516 53.9635 208.774 80.5069 182.798 75.3249C158.592 70.4962 169.985 42.0364 181.793 44.3919C187.224 45.4754 188.023 55.5185 192.101 54.7877C194.938 54.1182 193.445 49.3418 188.967 45.3598C183.458 40.3999 173.968 33.256 175.676 24.7939C177.413 16.1833 188.762 13.5054 198.326 15.4133C225.72 20.878 208.379 42.9004 202.19 38.2682C198.653 35.7094 198.813 31.2627 195.861 30.6739C192.437 29.9908 190.527 37.0226 198.868 43.1651Z" fill="#FFE6E3"/>
<path d="M325.858 30.1882C321.873 39.6971 313.745 49.7541 313.599 54.3838C313.429 58.6802 316.857 61.3943 314.604 66.769C312.41 72.0058 303.685 74.5374 297.017 71.7747C290.765 69.1846 289.002 65.2197 290.352 60.4417C290.907 58.7304 289.577 59.9585 288.871 60.4749C284.082 63.343 278.436 65.5326 273.433 61.519C264.006 54.0552 263.645 37.4084 269.247 24.0407C274.791 10.8109 286.127 3.21507 295.852 7.24406C303.771 10.5248 303.077 24.6318 301.569 34.8437C301.27 36.3369 302.161 36.5444 302.542 35.2466C303.834 30.6064 304.791 25.9889 306.408 22.1302C308.718 16.6177 312.941 14.3236 319.887 17.2015C326.833 20.0793 328.168 24.6757 325.858 30.1882ZM286.221 28.6352C286.071 28.3775 285.604 28.441 285.526 28.7286C284.94 30.8738 283.011 36.0343 277.505 38.9915C277.256 39.1252 277.295 39.5142 277.565 39.5968C283.414 41.3853 286.792 46.2681 288.157 48.6969C288.32 48.9857 288.934 48.8593 288.974 48.5304C289.31 45.7494 290.728 40.0545 296.683 37.7943C296.97 37.6854 296.963 37.2275 296.67 37.1344C290.584 35.1977 287.351 30.5784 286.221 28.6352Z" fill="#FFE6E3"/>
<path d="M335.148 42.7196C334.69 44.0876 334.002 44.9863 333.085 45.4156C332.173 45.8288 331.086 45.8263 329.823 45.408C327.136 44.5179 326.241 42.7371 327.136 40.0654C327.6 38.6813 328.285 37.7907 329.191 37.3936C330.097 36.9964 331.198 37.0124 332.493 37.4413C333.836 37.8864 334.727 38.53 335.164 39.3721C335.617 40.2197 335.612 41.3355 335.148 42.7196ZM330.958 55.3858C330.602 56.448 330.055 57.5452 329.316 58.6772C328.577 59.8092 327.727 60.7079 326.767 61.3732C325.823 62.0439 324.857 62.2157 323.87 61.8887C323.594 61.7975 323.36 61.6125 323.166 61.3335C322.987 61.06 322.968 60.714 323.109 60.2955L323.173 60.1024C323.308 59.8073 323.556 59.523 323.918 59.2493C324.279 58.9757 324.511 58.686 324.614 58.3802C324.695 58.1387 324.581 57.8598 324.274 57.5434C323.982 57.2323 323.702 56.9158 323.432 56.594C323.07 56.1702 322.827 55.6338 322.703 54.9847C322.584 54.3196 322.665 53.5685 322.946 52.7316C323.409 51.3475 324.094 50.4569 325.001 50.0598C325.907 49.6627 327.008 49.6786 328.303 50.1076C329.646 50.5526 330.537 51.1962 330.974 52.0384C331.427 52.8859 331.422 54.0017 330.958 55.3858Z" fill="#FFE6E3"/>
<path d="M53.7233 53.3825C61.7293 52.4877 72.1794 62.825 73.1852 74.4197C74.6418 91.2122 59.7222 105.596 40.4349 107.752C18.2364 110.233 2.56949 86.3497 0.315214 60.3614C-2.21652 31.1745 10.597 7.33717 35.3429 4.57124C57.9053 2.04935 67.6362 10.4486 68.5205 20.644C69.3876 30.6395 64.3453 40.2862 51.6085 41.7099C33.7769 43.703 26.5749 13.6252 18.0323 25.278C11.4477 34.0879 21.2669 73.1581 34.1857 71.7142C44.3752 70.5753 41.5323 54.7452 53.7233 53.3825Z" fill="#FFE6E3"/>
</svg>
