<svg width="671" height="240" viewBox="0 0 671 240" fill="none" xmlns="http://www.w3.org/2000/svg">
<path d="M173.574 149.246L180.283 149.038C181.121 149.038 182.065 149.003 183.113 148.933C184.161 148.864 185.209 148.794 186.258 148.725C188.634 148.516 190.59 148.412 192.128 148.412L200.933 148.516C202.54 148.516 203.344 149.037 203.344 150.08V155.291C203.344 155.916 203.204 156.299 202.925 156.438C202.715 156.507 202.226 156.542 201.457 156.542C200.549 156.542 199.745 156.507 199.046 156.438L192.337 156.333C189.682 156.333 187.096 156.472 184.58 156.75L179.92 157.034C179.642 157.051 179.411 157.258 179.365 157.534L179.13 158.939C178.99 160.468 178.92 161.684 178.92 162.587L178.815 171.863L178.71 177.179V179.08C178.71 179.412 178.979 179.681 179.311 179.678C180.477 179.67 181.36 179.636 181.96 179.576L186.991 179.472L191.184 179.368C192.163 179.298 193.525 179.263 195.273 179.263C196.391 179.263 197.124 179.402 197.474 179.68C197.893 179.958 198.103 180.41 198.103 181.035L197.998 184.475C197.998 185.031 197.823 185.413 197.474 185.621C197.194 185.83 196.565 185.934 195.587 185.934C194.329 185.934 193.281 185.899 192.442 185.83L188.249 185.725H179.101C178.769 185.725 178.5 185.994 178.502 186.326C178.509 187.827 178.544 188.948 178.605 189.686L178.71 196.252L178.605 201.359C178.466 203.583 178.396 205.285 178.396 206.467L178.501 218.765C178.501 219.669 178.291 220.294 177.872 220.641C177.522 220.989 176.928 221.163 176.09 221.163C175.74 221.163 174.937 221.093 173.679 220.954C173.05 220.885 171.757 220.85 169.8 220.85L162.148 220.954C161.429 220.889 160.955 220.763 160.725 220.577C160.694 220.552 160.669 220.521 160.649 220.487C160.53 220.285 160.471 220.024 160.471 219.703C160.471 219.286 160.471 219.009 160.471 218.87L160.366 213.346C160.366 212.373 160.331 211.539 160.261 210.844L160.156 203.757C160.156 202.714 160.191 201.672 160.261 200.63C160.401 199.518 160.471 198.719 160.471 198.233C160.68 196.634 160.785 194.828 160.785 192.813L160.68 180.931L160.785 174.052C160.925 170.856 160.995 168.424 160.995 166.756C160.995 162.865 160.925 158.071 160.785 152.373C160.785 151.122 160.925 150.288 161.204 149.871C161.554 149.454 162.043 149.246 162.672 149.246C163.091 149.246 163.511 149.281 163.93 149.35C164.419 149.42 164.978 149.454 165.607 149.454L173.574 149.246Z" fill="#F02F46"/>
<path d="M263.509 219.085C265.396 220.961 266.339 222.247 266.339 222.942C266.339 223.075 266.178 223.304 265.857 223.629C265.829 223.657 265.799 223.682 265.765 223.703C265.105 224.099 263.55 224.297 261.098 224.297C259.281 224.297 258.128 224.158 257.639 223.88C257.149 223.671 256.765 223.289 256.486 222.733C256.276 222.177 256.101 221.76 255.961 221.482C255.752 221.065 254.878 219.884 253.341 217.939C251.873 215.924 250.755 214.395 249.986 213.353C246.283 208.628 243.068 204.354 240.343 200.533C238.665 198.17 235.556 194.105 231.013 188.338L229.336 186.254L223.021 178.427C222.684 178.01 222.01 178.211 221.957 178.744L221.684 181.459C221.404 183.544 221.334 186.045 221.474 188.964C221.684 190.909 221.823 195.947 221.893 204.076C221.963 212.206 221.998 218.147 221.998 221.899C221.998 223.011 221.579 223.706 220.74 223.984C219.902 224.331 218.923 224.505 217.805 224.505C217.316 224.505 217.002 224.297 216.862 223.88C216.726 223.475 216.623 223.037 216.554 222.567C216.549 222.539 216.547 222.51 216.547 222.482C216.547 222.02 216.547 221.721 216.547 221.587C216.408 220.475 216.338 218.842 216.338 216.688C216.338 215.298 216.373 214.256 216.443 213.561C216.512 209.809 216.617 203.277 216.757 193.966C216.897 184.586 216.967 176.178 216.967 168.744C216.967 160.753 216.862 156.097 216.652 154.777C216.582 154.221 216.547 153.492 216.547 152.588C216.547 151.546 216.687 150.886 216.967 150.608C217.316 150.33 217.805 150.191 218.434 150.191C219.832 150.191 221.195 150.226 222.522 150.295L233.948 150.504C238.141 150.504 242.509 151.233 247.051 152.693C251.594 154.152 253.865 156.862 253.865 160.822C253.865 164.574 252.467 167.493 249.672 169.577C246.877 171.662 243.732 173.086 240.238 173.851C236.813 174.615 233.808 174.997 231.223 174.997C230.314 174.997 229.825 174.962 229.755 174.893C230.175 175.31 232.935 178.993 238.036 185.941C253.411 206.439 261.902 217.487 263.509 219.085ZM221.816 170.098C221.801 170.439 222.074 170.724 222.415 170.723C224.414 170.717 225.952 170.683 227.03 170.62C231.083 170.481 234.228 170.203 236.464 169.786C239.679 169.23 242.09 168.466 243.697 167.493C245.374 166.52 246.213 164.991 246.213 162.907C246.213 161.517 245.479 160.336 244.011 159.363C242.544 158.321 240.762 157.557 238.665 157.07C236.639 156.514 234.857 156.236 233.319 156.236C231.572 156.167 229.126 156.132 225.982 156.132H222.992C222.671 156.132 222.407 156.385 222.393 156.706L221.816 170.098Z" fill="#F95E1C"/>
<path d="M328.839 219.095C328.87 219.133 328.897 219.173 328.919 219.217C329.247 219.875 329.41 220.304 329.41 220.506C329.41 221.062 328.781 221.34 327.523 221.34H319.976C319.697 221.34 319.417 221.097 319.137 220.61C318.858 220.124 318.613 219.638 318.404 219.151C318.194 218.665 318.019 218.248 317.88 217.9C317.53 217.206 316.866 215.607 315.888 213.106C314.979 210.605 314.281 208.624 313.791 207.165C313.582 206.47 313.162 205.463 312.534 204.142C311.919 202.784 311.471 201.824 311.19 201.262C311.177 201.237 311.166 201.21 311.157 201.183C310.892 200.401 310.627 199.869 310.362 199.587C310.342 199.566 310.324 199.545 310.306 199.523C310.094 199.267 309.753 199.14 309.284 199.14C308.795 199.14 308.166 199.174 307.397 199.244C306.712 199.312 305.959 199.38 305.139 199.448C305.107 199.451 305.076 199.456 305.044 199.463C304.439 199.595 302.707 199.661 299.85 199.661C297.823 199.661 295.831 199.73 293.875 199.869C293.246 199.939 292.128 199.973 290.52 199.973L284.965 199.869C284.634 199.869 284.365 199.994 284.16 200.243C284.137 200.271 284.118 200.302 284.102 200.335C283.974 200.604 283.877 200.935 283.812 201.328C283.742 201.676 283.672 201.954 283.602 202.162L282.973 204.768C282.763 205.741 282.484 206.887 282.134 208.207C281.855 209.458 281.61 210.639 281.401 211.751L280.247 216.233L279.409 219.255C279.199 220.089 278.99 220.645 278.78 220.923C278.64 221.131 278.396 221.236 278.046 221.236H271.861C271.512 221.236 271.337 221.097 271.337 220.819C271.337 220.68 271.477 220.193 271.757 219.36C272.316 218.039 272.805 216.719 273.224 215.399C275.81 206.783 277.347 201.155 277.836 198.514C278.465 195.04 279.758 190.558 281.715 185.069C282.344 182.706 282.938 180.552 283.497 178.607C283.707 177.634 284.021 176.453 284.44 175.063C285.768 170.199 287.096 165.648 288.424 161.409L291.044 153.071C291.603 150.917 292.302 148.694 293.141 146.401C293.549 145.385 294.024 145.128 294.565 145.63C294.594 145.657 294.625 145.682 294.657 145.705C295.052 145.988 295.35 146.463 295.552 147.13C295.762 147.825 295.901 148.312 295.971 148.59C296.181 149.423 298.033 153.592 301.527 161.097C302.925 163.946 304.427 167.663 306.034 172.249C306.733 174.264 308.655 178.607 311.8 185.277C313.407 188.543 314.455 190.801 314.944 192.052C316.063 194.484 319.068 200.39 323.959 209.771L325.217 212.376C326.795 215.854 328.002 218.094 328.839 219.095ZM301.422 184.756C301.911 184.687 302.331 184.652 302.68 184.652C303.029 184.652 303.309 184.617 303.519 184.548C303.728 184.478 303.833 184.374 303.833 184.235C303.833 184.096 303.728 183.818 303.519 183.401C303.169 182.776 302.365 181.039 301.108 178.19C299.85 175.272 298.976 173.083 298.487 171.624C297.788 169.956 297.229 168.566 296.81 167.455C296.46 166.343 296.181 165.579 295.971 165.162C295.837 164.828 295.671 164.494 295.472 164.161C295.455 164.133 295.441 164.104 295.429 164.075C295.295 163.748 295.161 163.485 295.028 163.286C294.888 163.077 294.748 162.973 294.608 162.973C294.399 162.973 294.154 163.494 293.875 164.536C293.665 165.579 293.49 166.378 293.351 166.933C292.093 170.964 291.184 174.021 290.625 176.105C290.346 177.148 289.926 178.433 289.367 179.962C288.878 181.421 288.529 182.429 288.319 182.984C288.109 183.679 288.004 184.235 288.004 184.652C288.004 185.069 288.319 185.277 288.948 185.277C290.415 185.277 292.652 185.243 295.657 185.173C298.732 185.034 300.653 184.895 301.422 184.756Z" fill="#D9D9D9"/>
<path d="M351.317 158.746C352.855 158.746 353.973 158.92 354.672 159.267C355.44 159.545 356.034 160.066 356.454 160.831C357.152 162.29 358.026 164.166 359.074 166.459L362.953 174.797L367.879 185.533C368.788 187.478 369.976 190.049 371.443 193.245C372.911 196.442 373.959 198.665 374.588 199.916C375.776 202.348 376.545 203.842 376.894 204.398L381.852 214.089C382.144 214.66 383.008 214.436 382.986 213.795L382.869 210.443L382.45 200.229V197.102C382.45 193.28 382.52 189.424 382.66 185.533C382.66 182.614 382.625 180.252 382.555 178.445L382.45 170.524L382.869 160.518C382.869 159.476 383.394 158.955 384.442 158.955C384.791 158.955 385.49 159.059 386.538 159.267C387.167 159.406 387.831 159.476 388.53 159.476C389.229 159.476 389.788 159.476 390.207 159.476C390.713 159.476 391.047 159.533 391.21 159.647C391.242 159.669 391.273 159.695 391.303 159.719C391.481 159.862 391.57 160.094 391.57 160.414C391.57 160.692 391.535 161.005 391.465 161.352C391.395 161.699 391.36 162.082 391.36 162.498L391.255 171.462L391.046 192.516L390.941 195.538C390.941 197.901 390.976 200.055 391.046 202C391.116 203.946 391.185 205.544 391.255 206.795C391.465 209.783 391.57 212.284 391.57 214.299C391.57 214.021 391.675 218.156 391.884 226.702L392.094 232.539V232.747C392.094 234.114 391.452 234.742 390.167 234.63C390.124 234.626 390.082 234.616 390.04 234.605C389.815 234.548 389.416 234.519 388.844 234.519L385.805 234.623H385.176C384.706 234.623 384.333 234.528 384.057 234.336C384.034 234.32 384.012 234.301 383.993 234.28C383.778 234.048 383.403 233.468 382.869 232.539C382.66 232.053 382.38 231.358 382.031 230.454C381.681 229.551 381.262 228.544 380.773 227.432C377.768 219.927 375.602 214.82 374.274 212.11C372.736 209.192 368.858 200.819 362.638 186.992C361.241 184.143 359.668 181.12 357.921 177.924L356.082 174.645C355.775 174.098 354.939 174.33 354.959 174.958L355.196 182.406L355.3 188.555C355.44 193.141 355.51 196.164 355.51 197.623C355.51 203.321 355.615 209.053 355.825 214.82L355.929 222.95C355.929 224.409 355.999 226.529 356.139 229.308L356.349 232.956V233.164C356.349 233.859 356.174 234.311 355.825 234.519C355.475 234.728 354.986 234.832 354.357 234.832L352.051 234.936C350.583 235.145 349.011 235.249 347.334 235.249C345.377 235.249 343.77 235.284 342.512 235.353L337.166 235.457C336.118 235.457 335.419 235.249 335.069 234.832C334.72 234.485 334.51 234.068 334.44 233.581C334.37 233.095 334.301 232.747 334.231 232.539C333.951 231.288 333.811 229.76 333.811 227.953C333.811 226.285 333.846 224.861 333.916 223.68C333.916 220.066 333.986 215.863 334.126 211.068C334.266 206.204 334.44 202.73 334.65 200.646L335.174 193.245C336.013 181.711 336.432 175.214 336.432 173.755C336.432 168.266 336.537 164.166 336.746 161.456C336.886 159.58 337.865 158.642 339.682 158.642C340.241 158.642 340.765 158.677 341.254 158.746C341.743 158.816 342.127 158.85 342.407 158.85L351.317 158.746Z" fill="#F02F46"/>
<path d="M425.046 147.342C430.776 147.342 435.109 148.385 438.044 150.469C440.979 152.484 443.006 154.36 444.124 156.097C445.312 157.765 446.045 158.807 446.325 159.224C447.024 160.128 447.373 160.822 447.373 161.309C447.373 161.726 447.233 162.073 446.954 162.351C446.674 162.629 446.325 162.872 445.906 163.081C445.526 163.269 445.261 163.43 445.11 163.561C445.081 163.587 445.051 163.613 445.018 163.634C444.185 164.191 443.083 165.049 441.713 166.207C441.084 166.694 440.14 167.423 438.882 168.396C437.738 169.266 436.95 169.814 436.519 170.039C436.488 170.056 436.457 170.075 436.428 170.096C436.163 170.283 435.898 170.377 435.633 170.377C435.144 170.377 434.689 170.099 434.27 169.543C433.851 168.987 433.571 168.605 433.431 168.396C433.292 168.188 432.907 167.736 432.278 167.041C431.719 166.346 430.986 165.756 430.077 165.269C429.169 164.783 428.155 164.54 427.037 164.54C424.941 164.54 423.298 165.895 422.11 168.605C420.922 171.315 420.328 176.144 420.328 183.092C420.328 187.678 420.713 191.43 421.481 194.349C422.25 197.267 423.159 199.386 424.207 200.707C425.325 201.957 426.373 202.583 427.352 202.583C428.749 202.583 429.798 202.27 430.496 201.645C431.265 201.019 431.929 199.838 432.488 198.101C433.047 196.433 433.956 195.599 435.214 195.599C435.633 195.599 436.087 195.669 436.576 195.808C437.135 195.947 437.555 196.051 437.834 196.121C438.533 196.398 440.245 196.85 442.971 197.476C445.696 198.031 448.037 198.483 449.994 198.83C450.972 199.039 451.461 199.873 451.461 201.332C451.461 202.027 451.426 202.548 451.357 202.895C451.287 203.799 451.007 205.015 450.518 206.543C449.05 210.99 446.535 215.02 442.971 218.634C439.476 222.177 434.235 223.949 427.247 223.949C422.984 223.949 418.686 222.664 414.353 220.093C410.021 217.522 406.352 213.249 403.347 207.273C400.342 201.228 398.839 193.306 398.839 183.509C398.839 169.612 401.53 160.128 406.911 155.055C412.292 149.913 418.337 147.342 425.046 147.342Z" fill="#F95E1C"/>
<path d="M468.676 161.517C468.466 163.046 468.291 166.972 468.151 173.295C468.151 175.24 468.012 180.174 467.732 188.095C467.453 195.738 467.313 200.394 467.313 202.061C467.313 206.092 467.383 211.199 467.523 217.383C467.662 223.497 467.802 227.145 467.942 228.327C468.012 228.744 468.047 229.23 468.047 229.786C468.047 230.24 467.955 230.573 467.773 230.785C467.747 230.815 467.721 230.845 467.698 230.877C467.554 231.069 467.321 231.261 466.998 231.453C466.579 231.731 465.496 231.87 463.749 231.87C463.469 231.87 463.015 231.87 462.386 231.87C461.827 231.87 461.478 231.801 461.338 231.662C461.198 231.523 461.128 231.245 461.128 230.828L461.233 227.493L461.443 213.839L461.652 191.951C461.652 189.867 461.792 185.142 462.072 177.777C462.142 176.039 462.246 173.225 462.386 169.334C462.523 165.452 462.526 163.139 462.394 162.394C462.389 162.365 462.385 162.336 462.384 162.306L462.281 160.162C462.281 158.356 462.84 157.452 463.958 157.452L467.837 157.557C468.536 157.557 468.885 158.043 468.885 159.016C468.885 159.363 468.85 159.78 468.78 160.266C468.711 160.683 468.676 161.1 468.676 161.517Z" fill="#D9D9D9"/>
<path d="M504.08 142.598C510.719 142.598 516.17 143.918 520.433 146.559C524.766 149.13 528.12 151.596 530.496 153.959C530.776 154.237 530.915 154.549 530.915 154.897C530.915 155.105 530.811 155.383 530.601 155.731C530.475 155.982 530.377 156.176 530.308 156.314C530.294 156.342 530.278 156.369 530.259 156.394C529.907 156.887 529.322 157.743 528.505 158.962C527.736 160.143 527.107 161.012 526.618 161.567C526.408 161.845 526.163 162.158 525.884 162.505C525.691 162.762 525.497 162.959 525.304 163.097C525.272 163.12 525.242 163.146 525.21 163.17C525.066 163.283 524.836 163.339 524.521 163.339C524.384 163.339 524.047 163.139 523.507 162.739C523.485 162.723 523.463 162.704 523.443 162.684C522.964 162.21 522.485 161.803 522.005 161.463C519.21 159.031 516.485 156.947 513.829 155.21C511.174 153.472 508.623 152.604 506.177 152.604C504.22 152.604 502.613 153.056 501.355 153.959C500.097 154.793 499.468 156.738 499.468 159.796C499.468 162.783 500.586 165.111 502.823 166.779C505.059 168.446 508.029 170.045 511.733 171.573C512.082 171.712 514.109 172.581 517.812 174.179C521.586 175.777 524.906 178.834 527.771 183.351C530.706 187.867 532.173 193.252 532.173 199.506C532.173 206.177 529.658 211.179 524.626 214.515C519.594 217.85 512.641 219.518 503.766 219.518C493.703 219.518 487.308 217.607 484.583 213.785C481.858 209.894 480.425 207.879 480.285 207.74C480.006 207.393 479.866 207.045 479.866 206.698C479.866 206.489 480.145 206.038 480.705 205.343C481.613 204.092 482.941 202.598 484.688 200.861C484.967 200.583 485.247 200.444 485.527 200.444C485.876 200.444 486.26 200.722 486.68 201.278C487.099 201.764 487.448 202.146 487.728 202.424C491.851 206.524 496.533 208.574 501.774 208.574C504.43 208.574 506.736 208.087 508.693 207.115C510.65 206.072 511.628 204.161 511.628 201.382C511.628 196.588 507.819 191.481 500.202 186.061C498.944 185.227 497.756 184.532 496.638 183.976C493.703 182.378 491.187 180.815 489.091 179.286C486.994 177.757 485.142 175.742 483.535 173.241C481.927 170.739 481.124 167.821 481.124 164.486C481.124 160.317 482.417 156.565 485.002 153.229C487.658 149.894 490.803 147.288 494.437 145.412C498.14 143.536 501.355 142.598 504.08 142.598Z" fill="#F02F46"/>
<path d="M567.563 163.393C573.293 163.393 577.626 164.435 580.561 166.52C583.496 168.535 585.523 170.411 586.641 172.148C587.829 173.816 588.563 174.858 588.842 175.275C589.541 176.178 589.89 176.873 589.89 177.36C589.89 177.777 589.751 178.124 589.471 178.402C589.192 178.68 588.842 178.923 588.423 179.131C588.043 179.32 587.778 179.48 587.628 179.612C587.598 179.638 587.568 179.663 587.535 179.685C586.702 180.242 585.6 181.1 584.23 182.258C583.601 182.745 582.658 183.474 581.4 184.447C580.255 185.317 579.468 185.865 579.037 186.09C579.005 186.107 578.974 186.126 578.945 186.146C578.68 186.334 578.415 186.427 578.15 186.427C577.661 186.427 577.207 186.149 576.787 185.594C576.368 185.038 576.089 184.655 575.949 184.447C575.809 184.239 575.425 183.787 574.796 183.092C574.237 182.397 573.503 181.807 572.594 181.32C571.686 180.834 570.673 180.591 569.554 180.591C567.458 180.591 565.816 181.946 564.628 184.655C563.44 187.365 562.846 192.195 562.846 199.143C562.846 203.729 563.23 207.481 563.999 210.4C564.767 213.318 565.676 215.437 566.724 216.757C567.842 218.008 568.891 218.633 569.869 218.633C571.267 218.633 572.315 218.321 573.014 217.695C573.782 217.07 574.446 215.889 575.005 214.152C575.564 212.484 576.473 211.65 577.731 211.65C578.15 211.65 578.604 211.72 579.093 211.859C579.653 211.998 580.072 212.102 580.351 212.171C581.05 212.449 582.762 212.901 585.488 213.526C588.213 214.082 590.554 214.534 592.511 214.881C593.489 215.09 593.979 215.924 593.979 217.383C593.979 218.078 593.944 218.599 593.874 218.946C593.804 219.849 593.524 221.065 593.035 222.594C591.568 227.041 589.052 231.071 585.488 234.684C581.994 238.228 576.752 240 569.764 240C565.501 240 561.203 238.715 556.871 236.144C552.538 233.573 548.869 229.299 545.864 223.324C542.859 217.278 541.357 209.357 541.357 199.56C541.357 185.663 544.047 176.178 549.428 171.106C554.809 165.964 560.854 163.393 567.563 163.393Z" fill="#F95E1C"/>
<path d="M639.582 153.318C643.775 156.097 647.13 159.849 649.646 164.574C652.231 169.299 654.013 173.92 654.992 178.437C656.04 182.884 656.564 186.393 656.564 188.964C656.564 193.272 655.865 198.274 654.467 203.972C653.14 209.67 650.239 214.986 645.767 219.919C641.294 224.783 634.83 227.215 626.374 227.215C614.774 227.215 606.528 220.51 601.636 207.099C599.469 201.054 598.246 194.314 597.967 186.879C597.967 180.764 599.26 174.962 601.845 169.473C604.431 163.914 607.82 159.467 612.013 156.132C616.276 152.797 620.644 151.129 625.116 151.129C629.17 151.129 632.175 151.233 634.131 151.442C636.158 151.65 637.975 152.276 639.582 153.318ZM625.85 221.378C633.258 221.378 638.779 218.321 642.413 212.206C646.047 206.022 647.863 198.274 647.863 188.964C647.863 183.266 646.99 178.02 645.243 173.225C643.566 168.361 641.155 164.505 638.01 161.656C634.935 158.738 631.371 157.279 627.318 157.279C626.968 157.279 626.025 157.279 624.488 157.279C623.02 157.279 621.727 157.522 620.609 158.008C619.491 158.495 618.478 159.224 617.569 160.197C615.263 162.49 613.306 164.609 611.699 166.555C610.162 168.431 608.589 171.245 606.982 174.997C605.444 178.749 604.676 183.092 604.676 188.026C604.676 193.862 605.375 199.317 606.772 204.389C608.24 209.392 610.546 213.492 613.691 216.688C616.835 219.815 620.889 221.378 625.85 221.378Z" fill="#D9D9D9"/>
<path d="M213.93 31.7093C227.934 31.7093 236.532 40.2589 237.515 67.3733C238.498 89.6022 246.36 102.549 247.097 112.564C247.588 122.335 236.041 128.442 223.757 128.442C211.473 128.442 205.331 122.335 205.331 112.564C205.331 95.7091 236.041 61.9993 207.788 61.9993C196.241 61.9993 190.099 71.5259 190.836 82.0297C191.818 95.7091 193.538 104.992 193.538 112.564C193.538 122.335 188.379 128.442 176.095 128.442C164.057 128.442 158.897 122.335 158.897 112.564C158.897 102.549 162.091 89.6022 162.091 67.3733C162.091 33.6635 153.984 36.5948 153.984 24.1368C153.984 12.9002 171.673 6.06051 181.009 6.06051C190.344 6.06051 193.538 12.4116 193.538 21.9383C193.538 29.9994 191.081 40.0146 190.59 54.9153C190.344 57.6023 191.327 56.6252 191.818 55.4038C195.995 45.8772 202.628 31.7093 213.93 31.7093Z" fill="#FFE6E3"/>
<path d="M313.445 68.684C326.958 68.684 335.556 80.8977 333.591 89.2031C329.906 103.371 313.691 112.653 295.265 112.653C267.503 112.653 250.305 92.3786 250.305 62.5772C250.305 28.1345 274.873 12.7453 296.247 12.7453C320.078 12.7453 333.591 29.3559 333.591 40.3482C333.591 65.5085 301.898 62.3329 286.912 71.8596C280.032 76.2565 281.261 83.829 288.631 83.829C294.282 83.829 297.967 68.684 313.445 68.684ZM291.289 33.7451C291.201 33.152 290.284 32.9421 289.934 33.4293C287.991 36.1376 283.519 41.166 276.709 41.9076C276.146 41.9691 275.859 42.7568 276.232 43.1841C280.344 47.8938 280.321 56.5832 279.923 61.4535C279.868 62.1282 281.053 62.5588 281.447 62.0086C284.217 58.1457 289.789 51.7001 297.153 49.8649C297.659 49.7387 297.839 49.0529 297.469 48.6847C293.355 44.5873 291.814 37.285 291.289 33.7451Z" fill="#FFE6E3"/>
<path d="M521.829 45.1907C521.829 59.3586 504.632 67.9081 489.645 71.8165C488.171 72.0608 488.417 72.7936 489.645 73.0379C499.472 75.2364 521.829 80.3661 521.829 100.397C521.829 110.168 516.424 122.381 501.683 122.381C486.451 122.381 479.081 110.9 479.081 98.1981C479.081 89.4043 482.52 74.015 471.956 74.015C467.042 74.015 466.797 79.1448 467.042 81.3432C468.025 92.3356 469.499 100.152 469.499 106.503C469.499 116.274 464.34 122.381 452.056 122.381C440.017 122.381 434.858 116.274 434.858 106.503C434.858 96.4882 438.052 83.5417 438.052 61.3127C438.052 27.6029 429.945 30.5343 429.945 18.0763C429.945 6.83967 447.634 0 456.969 0C466.305 0 469.499 6.35111 469.499 15.8778C469.499 24.6717 467.534 35.664 466.305 52.7632C466.06 58.1372 468.025 60.8242 471.956 59.3586C486.697 53.7402 472.693 25.6488 497.016 25.6488C512.493 25.6488 521.829 34.9312 521.829 45.1907Z" fill="#FFE6E3"/>
<path d="M397.736 86.3303C427.032 107.927 417.548 161.014 365.595 150.65C317.184 140.992 339.97 84.0728 363.585 88.7838C374.448 90.9508 376.045 111.037 384.201 109.575C389.876 108.236 386.89 98.6836 377.934 90.7196C366.916 80.7999 347.936 66.512 351.351 49.5877C354.826 32.3665 377.525 27.0108 396.653 30.8267C451.44 41.7561 416.758 85.8009 404.379 76.5363C397.305 71.4187 397.626 62.5255 391.722 61.3477C384.874 59.9816 381.053 74.0452 397.736 86.3303Z" fill="#FFE6E3"/>
<path d="M651.716 60.3763C643.746 79.3943 627.491 99.5082 627.197 108.768C626.857 117.36 633.713 122.789 629.208 133.538C624.819 144.012 607.371 149.075 594.033 143.549C581.53 138.369 578.005 130.439 580.705 120.883C581.813 117.461 579.153 119.917 577.742 120.95C568.164 126.686 556.872 131.065 546.866 123.038C528.012 108.11 527.29 74.8169 538.494 48.0815C549.583 21.6217 572.254 6.43013 591.704 14.4881C607.542 21.0496 606.154 49.2637 603.138 69.6873C602.539 72.6738 604.322 73.0888 605.083 70.4931C607.668 61.2128 609.582 51.9778 612.816 44.2604C617.436 33.2355 625.881 28.6472 639.774 34.4029C653.667 40.1586 656.336 49.3514 651.716 60.3763ZM572.442 57.2705C572.142 56.755 571.208 56.8819 571.051 57.4572C569.881 61.7477 566.022 72.0687 555.01 77.9831C554.513 78.2504 554.59 79.0284 555.13 79.1936C566.828 82.7706 573.583 92.5361 576.314 97.3937C576.639 97.9713 577.868 97.7186 577.948 97.0608C578.62 91.4988 581.457 80.109 593.366 75.5886C593.94 75.3708 593.925 74.4551 593.34 74.2689C581.168 70.3953 574.702 61.1567 572.442 57.2705Z" fill="#FFE6E3"/>
<path d="M670.296 85.4392C669.38 88.1752 668.004 89.9725 666.17 90.8311C664.346 91.6575 662.172 91.6525 659.647 90.816C654.273 89.0358 652.481 85.4741 654.272 80.1308C655.199 77.3626 656.569 75.5813 658.382 74.7871C660.195 73.9929 662.396 74.0247 664.986 74.8827C667.673 75.7728 669.453 77.06 670.328 78.7443C671.234 80.4393 671.224 82.671 670.296 85.4392ZM661.916 110.772C661.204 112.896 660.109 115.09 658.631 117.354C657.153 119.618 655.454 121.416 653.534 122.746C651.646 124.088 649.714 124.431 647.739 123.777C647.189 123.595 646.72 123.225 646.331 122.667C645.975 122.12 645.937 121.428 646.217 120.591L646.347 120.205C646.616 119.615 647.113 119.046 647.836 118.499C648.558 117.951 649.022 117.372 649.227 116.76C649.389 116.277 649.162 115.72 648.547 115.087C647.964 114.465 647.403 113.832 646.864 113.188C646.141 112.34 645.655 111.268 645.406 109.969C645.169 108.639 645.33 107.137 645.891 105.463C646.819 102.695 648.189 100.914 650.002 100.12C651.814 99.3253 654.016 99.3572 656.605 100.215C659.292 101.105 661.073 102.392 661.947 104.077C662.854 105.772 662.844 108.003 661.916 110.772Z" fill="#FFE6E3"/>
<path d="M107.447 106.765C123.459 104.975 144.359 125.65 146.37 148.839C149.284 182.424 119.444 211.192 80.8699 215.504C36.4729 220.467 5.13899 172.699 0.630428 120.723C-4.43303 62.349 21.1941 14.6743 70.6859 9.14248C115.811 4.09871 135.272 20.8971 137.041 41.288C138.775 61.2789 128.691 80.5725 103.217 83.4197C67.5538 87.4059 53.1498 27.2504 36.0646 50.556C22.8954 68.1758 42.5338 146.316 68.3714 143.428C88.7504 141.151 83.0646 109.49 107.447 106.765Z" fill="#FFE6E3"/>
</svg>
