<svg width="1007" height="360" viewBox="0 0 1007 360" fill="none" xmlns="http://www.w3.org/2000/svg">
<path d="M260.361 223.869L270.424 223.556C271.682 223.556 273.097 223.504 274.669 223.4C276.242 223.296 277.814 223.191 279.386 223.087C282.951 222.775 285.886 222.618 288.192 222.618L301.4 222.775C303.811 222.775 305.016 223.556 305.016 225.12V232.937C305.016 233.875 304.806 234.448 304.387 234.656C304.073 234.761 303.339 234.813 302.186 234.813C300.823 234.813 299.618 234.761 298.569 234.656L288.506 234.5C284.523 234.5 280.644 234.709 276.871 235.125L269.762 235.558C269.413 235.579 269.125 235.838 269.067 236.183L268.694 238.409C268.485 240.702 268.38 242.526 268.38 243.881L268.223 257.795L268.065 265.768V268.77C268.065 269.185 268.401 269.521 268.816 269.518C270.64 269.507 272.014 269.456 272.94 269.364L280.487 269.208L286.777 269.051C288.244 268.947 290.288 268.895 292.909 268.895C294.586 268.895 295.687 269.104 296.211 269.52C296.84 269.937 297.154 270.615 297.154 271.553L296.997 276.712C296.997 277.546 296.735 278.119 296.211 278.432C295.792 278.744 294.848 278.901 293.381 278.901C291.494 278.901 289.921 278.849 288.663 278.744L282.374 278.588H268.501C268.087 278.588 267.751 278.924 267.752 279.338C267.761 281.666 267.813 283.397 267.908 284.529L268.065 294.379L267.908 302.039C267.698 305.374 267.594 307.928 267.594 309.7L267.751 328.148C267.751 329.503 267.436 330.441 266.807 330.962C266.283 331.483 265.392 331.744 264.134 331.744C263.61 331.744 262.405 331.64 260.518 331.431C259.575 331.327 257.635 331.275 254.7 331.275L243.222 331.431C242.131 331.333 241.416 331.141 241.075 330.856C241.038 330.824 241.006 330.786 240.981 330.743C240.798 330.438 240.706 330.042 240.706 329.555C240.706 328.93 240.706 328.513 240.706 328.304L240.549 320.018C240.549 318.559 240.496 317.308 240.392 316.266L240.234 305.635C240.234 304.072 240.287 302.508 240.392 300.945C240.601 299.277 240.706 298.079 240.706 297.349C241.021 294.952 241.178 292.242 241.178 289.219L241.021 271.396L241.178 261.078C241.387 256.284 241.492 252.636 241.492 250.134C241.492 244.297 241.387 237.106 241.178 228.559C241.178 226.683 241.387 225.432 241.807 224.807C242.331 224.182 243.065 223.869 244.008 223.869C244.637 223.869 245.266 223.921 245.895 224.025C246.629 224.13 247.467 224.182 248.411 224.182L260.361 223.869Z" fill="#F02F46"/>
<path d="M395.263 328.628C398.094 331.442 399.509 333.37 399.509 334.412C399.509 334.614 399.264 334.961 398.775 335.454C398.74 335.489 398.703 335.521 398.66 335.546C397.678 336.145 395.34 336.445 391.647 336.445C388.921 336.445 387.192 336.236 386.458 335.819C385.724 335.507 385.148 334.934 384.728 334.1C384.414 333.266 384.152 332.641 383.942 332.224C383.628 331.598 382.317 329.826 380.011 326.908C377.81 323.885 376.133 321.593 374.98 320.029C369.424 312.942 364.602 306.532 360.514 300.799C357.998 297.256 353.333 291.158 346.52 282.507L344.004 279.381L334.302 267.357C333.881 266.835 333.039 267.086 332.972 267.753L332.526 272.189C332.106 275.316 332.002 279.068 332.211 283.445C332.526 286.364 332.735 293.92 332.84 306.115C332.945 318.309 332.997 327.221 332.997 332.849C332.997 334.517 332.368 335.559 331.11 335.976C329.853 336.497 328.385 336.758 326.708 336.758C325.974 336.758 325.502 336.445 325.293 335.819C325.088 335.209 324.933 334.55 324.829 333.84C324.823 333.805 324.821 333.769 324.821 333.733C324.821 333.034 324.821 332.583 324.821 332.38C324.611 330.712 324.507 328.263 324.507 325.032C324.507 322.947 324.559 321.384 324.664 320.342C324.769 314.714 324.926 304.916 325.136 290.95C325.345 276.879 325.45 264.268 325.45 253.115C325.45 241.129 325.293 234.146 324.978 232.166C324.873 231.332 324.821 230.238 324.821 228.883C324.821 227.319 325.031 226.329 325.45 225.912C325.974 225.495 326.708 225.287 327.651 225.287C329.748 225.287 331.792 225.339 333.784 225.443L350.922 225.756C357.212 225.756 363.763 226.85 370.577 229.039C377.391 231.228 380.797 235.293 380.797 241.233C380.797 246.862 378.701 251.239 374.508 254.366C370.315 257.493 365.598 259.63 360.357 260.776C355.22 261.923 350.713 262.496 346.834 262.496C345.471 262.496 344.738 262.444 344.633 262.339C345.262 262.965 349.402 268.489 357.055 278.912C380.116 309.659 392.852 326.231 395.263 328.628ZM332.717 255.304C332.698 255.73 333.04 256.086 333.467 256.085C336.54 256.078 338.9 256.026 340.545 255.929C346.625 255.721 351.342 255.304 354.696 254.679C359.518 253.845 363.134 252.698 365.545 251.239C368.061 249.78 369.319 247.487 369.319 244.36C369.319 242.276 368.218 240.504 366.017 239.045C363.816 237.481 361.143 236.335 357.998 235.605C354.958 234.771 352.285 234.355 349.979 234.355C347.358 234.25 343.689 234.198 338.972 234.198H334.345C333.943 234.198 333.613 234.515 333.595 234.916L332.717 255.304Z" fill="#F95E1C"/>
<path d="M493.27 328.657C493.31 328.704 493.343 328.755 493.371 328.81C493.867 329.805 494.116 330.455 494.116 330.759C494.116 331.593 493.172 332.01 491.285 332.01H479.964C479.545 332.01 479.126 331.645 478.706 330.916C478.287 330.186 477.92 329.456 477.606 328.727C477.291 327.997 477.029 327.372 476.819 326.851C476.295 325.808 475.299 323.411 473.832 319.659C472.469 315.907 471.421 312.936 470.687 310.748C470.373 309.705 469.744 308.194 468.8 306.214C467.874 304.168 467.201 302.725 466.78 301.884C466.764 301.852 466.75 301.819 466.739 301.785C466.338 300.6 465.937 299.795 465.536 299.373C465.511 299.347 465.488 299.32 465.465 299.293C465.148 298.904 464.635 298.71 463.926 298.71C463.192 298.71 462.249 298.762 461.096 298.866C460.064 298.968 458.931 299.071 457.697 299.173C457.657 299.177 457.618 299.183 457.579 299.192C456.682 299.391 454.08 299.491 449.775 299.491C446.735 299.491 443.747 299.595 440.812 299.804C439.869 299.908 438.191 299.96 435.78 299.96L427.447 299.804C426.946 299.804 426.54 299.994 426.231 300.376C426.202 300.411 426.179 300.449 426.159 300.49C425.964 300.896 425.817 301.397 425.717 301.993C425.612 302.514 425.508 302.931 425.403 303.243L424.459 307.152C424.145 308.611 423.726 310.331 423.201 312.311C422.782 314.187 422.415 315.959 422.101 317.627L420.371 324.349L419.113 328.883C418.799 330.134 418.484 330.968 418.17 331.385C417.96 331.697 417.593 331.854 417.069 331.854H407.792C407.268 331.854 407.006 331.645 407.006 331.228C407.006 331.02 407.216 330.29 407.635 329.039C408.474 327.059 409.207 325.079 409.836 323.099C413.715 310.174 416.021 301.732 416.755 297.771C417.698 292.56 419.637 285.837 422.573 277.604C423.516 274.06 424.407 270.829 425.246 267.91C425.56 266.451 426.032 264.679 426.661 262.595C428.652 255.299 430.644 248.472 432.636 242.114L436.567 229.607C437.405 226.376 438.453 223.041 439.711 219.601C440.327 218.071 441.043 217.689 441.859 218.455C441.895 218.489 441.934 218.52 441.974 218.549C442.572 218.972 443.024 219.687 443.328 220.696C443.642 221.738 443.852 222.467 443.957 222.884C444.271 224.135 447.049 230.389 452.29 241.645C454.387 245.918 456.641 251.495 459.052 258.374C460.1 261.396 462.983 267.91 467.7 277.916C470.111 282.815 471.683 286.202 472.417 288.078C474.094 291.726 478.601 300.586 485.939 314.656L487.826 318.565C490.199 323.798 492.014 327.162 493.27 328.657ZM452.133 277.134C452.867 277.03 453.496 276.978 454.02 276.978C454.544 276.978 454.963 276.926 455.278 276.822C455.592 276.718 455.75 276.561 455.75 276.353C455.75 276.144 455.592 275.727 455.278 275.102C454.754 274.164 453.548 271.558 451.661 267.285C449.775 262.907 448.464 259.624 447.73 257.436C446.682 254.934 445.844 252.85 445.215 251.182C444.691 249.514 444.271 248.368 443.957 247.742C443.754 247.239 443.502 246.735 443.202 246.231C443.181 246.196 443.163 246.16 443.148 246.123C442.946 245.628 442.744 245.23 442.542 244.928C442.332 244.616 442.122 244.459 441.913 244.459C441.598 244.459 441.231 245.241 440.812 246.804C440.498 248.368 440.236 249.566 440.026 250.4C438.139 256.445 436.776 261.031 435.938 264.158C435.518 265.722 434.889 267.65 434.051 269.943C433.317 272.132 432.793 273.643 432.478 274.477C432.164 275.519 432.007 276.353 432.007 276.978C432.007 277.604 432.478 277.916 433.422 277.916C435.623 277.916 438.978 277.864 443.485 277.76C448.097 277.551 450.98 277.343 452.133 277.134Z" fill="#D9D9D9"/>
<path d="M526.976 238.119C529.282 238.119 530.959 238.38 532.007 238.901C533.16 239.318 534.051 240.1 534.68 241.246C535.729 243.435 537.039 246.249 538.611 249.689L544.429 262.196L551.819 278.299C553.182 281.217 554.964 285.074 557.165 289.868C559.367 294.663 560.939 297.998 561.882 299.874C563.664 303.522 564.817 305.763 565.342 306.597L573.085 321.733C573.45 322.447 574.53 322.167 574.502 321.366L574.304 315.664L573.675 300.343V295.653C573.675 289.92 573.78 284.136 573.99 278.299C573.99 273.921 573.937 270.378 573.832 267.668L573.675 255.786L574.304 240.777C574.304 239.214 575.09 238.432 576.663 238.432C577.187 238.432 578.235 238.588 579.807 238.901C580.751 239.11 581.747 239.214 582.795 239.214C583.843 239.214 584.682 239.214 585.311 239.214C586.082 239.214 586.588 239.302 586.827 239.479C586.866 239.508 586.904 239.539 586.943 239.57C587.218 239.784 587.355 240.134 587.355 240.621C587.355 241.038 587.302 241.507 587.198 242.028C587.093 242.549 587.04 243.122 587.04 243.748L586.883 257.193L586.569 288.774L586.411 293.308C586.411 296.851 586.464 300.082 586.569 303.001C586.673 305.919 586.778 308.316 586.883 310.192C587.197 314.674 587.355 318.426 587.355 321.449C587.355 321.032 587.512 327.234 587.827 340.053L588.141 348.809V349.121C588.141 351.177 587.172 352.118 585.235 351.943C585.181 351.938 585.128 351.926 585.076 351.912C584.741 351.823 584.138 351.779 583.267 351.779L578.707 351.935H577.763C577.054 351.935 576.492 351.789 576.077 351.498C576.048 351.477 576.021 351.454 575.997 351.428C575.675 351.086 575.111 350.212 574.304 348.809C573.99 348.079 573.57 347.037 573.046 345.682C572.522 344.327 571.893 342.815 571.159 341.148C566.652 329.891 563.402 322.231 561.411 318.166C559.104 313.788 553.287 301.229 543.957 280.488C541.861 276.214 539.502 271.681 536.882 266.886L533.823 261.433C533.439 260.748 532.394 261.039 532.419 261.823L532.793 273.609L532.951 282.833C533.16 289.712 533.265 294.246 533.265 296.434C533.265 304.981 533.422 313.58 533.737 322.231L533.894 334.425C533.894 336.614 533.999 339.793 534.209 343.962L534.523 349.434V349.747C534.523 350.789 534.261 351.466 533.737 351.779C533.213 352.092 532.479 352.248 531.536 352.248L528.076 352.404C525.875 352.717 523.516 352.873 521.001 352.873C518.066 352.873 515.655 352.925 513.768 353.03L505.749 353.186C504.176 353.186 503.128 352.873 502.604 352.248C502.08 351.727 501.765 351.101 501.66 350.372C501.556 349.642 501.451 349.121 501.346 348.809C500.927 346.932 500.717 344.639 500.717 341.93C500.717 339.428 500.769 337.291 500.874 335.52C500.874 330.1 500.979 323.794 501.189 316.602C501.398 309.307 501.66 304.095 501.975 300.968L502.761 289.868C504.019 272.566 504.648 262.821 504.648 260.632C504.648 252.399 504.805 246.249 505.12 242.184C505.329 239.37 506.797 237.963 509.522 237.963C510.361 237.963 511.147 238.015 511.881 238.119C512.615 238.224 513.191 238.276 513.611 238.276L526.976 238.119Z" fill="#F02F46"/>
<path d="M637.568 221.014C646.164 221.014 652.663 222.577 657.066 225.704C661.468 228.726 664.508 231.54 666.186 234.146C667.968 236.648 669.068 238.211 669.487 238.836C670.536 240.191 671.06 241.234 671.06 241.963C671.06 242.589 670.85 243.11 670.431 243.527C670.012 243.943 669.487 244.308 668.858 244.621C668.28 244.909 667.878 245.152 667.655 245.352C667.618 245.385 667.58 245.416 667.539 245.444C666.288 246.279 664.632 247.568 662.569 249.311C661.626 250.041 660.21 251.135 658.324 252.594C656.597 253.907 655.411 254.731 654.767 255.065C654.727 255.086 654.689 255.11 654.653 255.136C654.252 255.422 653.85 255.565 653.449 255.565C652.715 255.565 652.034 255.148 651.405 254.314C650.776 253.48 650.357 252.907 650.147 252.594C649.938 252.282 649.361 251.604 648.418 250.562C647.579 249.52 646.478 248.634 645.116 247.904C643.753 247.175 642.233 246.81 640.556 246.81C637.411 246.81 634.948 248.842 633.166 252.907C631.384 256.972 630.493 264.216 630.493 274.638C630.493 281.517 631.069 287.146 632.222 291.523C633.375 295.901 634.738 299.08 636.31 301.06C637.988 302.936 639.56 303.874 641.027 303.874C643.124 303.874 644.696 303.405 645.745 302.467C646.898 301.529 647.893 299.757 648.732 297.151C649.571 294.65 650.933 293.399 652.82 293.399C653.449 293.399 654.131 293.503 654.864 293.712C655.703 293.92 656.332 294.077 656.751 294.181C657.799 294.598 660.368 295.275 664.456 296.213C668.544 297.047 672.056 297.725 674.991 298.246C676.458 298.558 677.192 299.809 677.192 301.998C677.192 303.04 677.14 303.822 677.035 304.343C676.93 305.698 676.511 307.522 675.777 309.815C673.576 316.485 669.802 322.531 664.456 327.95C659.215 333.266 651.353 335.924 640.87 335.924C634.476 335.924 628.029 333.996 621.53 330.139C615.031 326.283 609.528 319.873 605.02 310.909C600.513 301.842 598.259 289.96 598.259 275.264C598.259 254.418 602.295 240.191 610.366 232.583C618.438 224.87 627.505 221.014 637.568 221.014Z" fill="#F95E1C"/>
<path d="M703.013 242.276C702.699 244.569 702.437 250.458 702.227 259.942C702.227 262.861 702.018 270.261 701.598 282.143C701.179 293.608 700.969 300.591 700.969 303.092C700.969 309.137 701.074 316.798 701.284 326.074C701.493 335.246 701.703 340.718 701.913 342.49C702.018 343.115 702.07 343.845 702.07 344.679C702.07 345.368 701.93 345.871 701.649 346.188C701.616 346.225 701.585 346.263 701.555 346.303C701.34 346.595 700.988 346.888 700.498 347.18C699.869 347.597 698.244 347.806 695.623 347.806C695.204 347.806 694.523 347.806 693.579 347.806C692.741 347.806 692.216 347.701 692.007 347.493C691.797 347.284 691.692 346.868 691.692 346.242L691.85 341.239L692.164 320.759L692.478 287.927C692.478 284.8 692.688 277.713 693.107 266.665C693.212 264.059 693.37 259.838 693.579 254.001C693.785 248.159 693.789 244.685 693.589 243.58C693.583 243.543 693.578 243.508 693.576 243.47L693.422 240.243C693.422 237.533 694.261 236.178 695.938 236.178L701.756 236.335C702.804 236.335 703.328 237.064 703.328 238.524C703.328 239.045 703.275 239.67 703.171 240.4C703.066 241.025 703.013 241.65 703.013 242.276Z" fill="#D9D9D9"/>
<path d="M756.121 213.897C766.079 213.897 774.255 215.878 780.65 219.838C787.149 223.695 792.18 227.395 795.744 230.938C796.164 231.355 796.373 231.824 796.373 232.345C796.373 232.658 796.216 233.075 795.902 233.596C795.709 233.979 795.561 234.274 795.456 234.482C795.439 234.517 795.419 234.55 795.396 234.582C794.868 235.32 793.988 236.607 792.757 238.443C791.604 240.215 790.66 241.517 789.927 242.351C789.612 242.768 789.245 243.237 788.826 243.758C788.532 244.148 788.238 244.447 787.944 244.654C787.903 244.683 787.866 244.715 787.827 244.746C787.611 244.921 787.263 245.009 786.782 245.009C786.576 245.009 786.066 244.707 785.253 244.103C785.224 244.082 785.197 244.058 785.172 244.033C784.451 243.32 783.729 242.707 783.008 242.195C778.815 238.547 774.727 235.42 770.744 232.814C766.76 230.209 762.934 228.906 759.265 228.906C756.33 228.906 753.919 229.583 752.033 230.938C750.146 232.189 749.202 235.107 749.202 239.693C749.202 244.175 750.879 247.667 754.234 250.168C757.588 252.67 762.043 255.067 767.599 257.36C768.123 257.568 771.163 258.871 776.719 261.268C782.379 263.666 787.358 268.252 791.656 275.026C796.059 281.801 798.26 289.879 798.26 299.259C798.26 309.265 794.486 316.769 786.939 321.772C779.392 326.775 768.962 329.276 755.649 329.276C740.554 329.276 730.963 326.41 726.875 320.678C722.786 314.841 720.637 311.818 720.428 311.61C720.009 311.089 719.799 310.568 719.799 310.047C719.799 309.734 720.218 309.056 721.057 308.014C722.42 306.138 724.411 303.897 727.032 301.292C727.451 300.875 727.87 300.666 728.29 300.666C728.814 300.666 729.39 301.083 730.019 301.917C730.648 302.646 731.172 303.22 731.592 303.637C737.776 309.786 744.8 312.861 752.662 312.861C756.645 312.861 760.104 312.131 763.039 310.672C765.974 309.109 767.442 306.242 767.442 302.073C767.442 294.882 761.729 287.221 750.303 279.091C748.416 277.84 746.634 276.798 744.957 275.964C740.554 273.567 736.781 271.222 733.636 268.929C730.491 266.636 727.713 263.613 725.302 259.861C722.891 256.109 721.686 251.732 721.686 246.729C721.686 240.475 723.625 234.847 727.503 229.844C731.487 224.841 736.204 220.933 741.655 218.118C747.211 215.304 752.033 213.897 756.121 213.897Z" fill="#F02F46"/>
<path d="M851.344 245.09C859.94 245.09 866.439 246.653 870.842 249.78C875.244 252.803 878.284 255.617 879.961 258.222C881.743 260.724 882.844 262.287 883.263 262.913C884.312 264.268 884.836 265.31 884.836 266.039C884.836 266.665 884.626 267.186 884.207 267.603C883.787 268.02 883.263 268.385 882.634 268.697C882.055 268.985 881.654 269.229 881.43 269.428C881.394 269.461 881.356 269.492 881.315 269.52C880.064 270.355 878.407 271.644 876.345 273.387C875.401 274.117 873.986 275.211 872.099 276.671C870.373 277.984 869.187 278.807 868.543 279.141C868.503 279.162 868.465 279.186 868.428 279.212C868.027 279.498 867.626 279.641 867.225 279.641C866.491 279.641 865.81 279.224 865.181 278.39C864.552 277.557 864.133 276.983 863.923 276.671C863.714 276.358 863.137 275.68 862.193 274.638C861.355 273.596 860.254 272.71 858.892 271.98C857.529 271.251 856.009 270.886 854.332 270.886C851.187 270.886 848.724 272.918 846.941 276.983C845.159 281.048 844.269 288.292 844.269 298.715C844.269 305.594 844.845 311.222 845.998 315.599C847.151 319.977 848.514 323.156 850.086 325.136C851.764 327.012 853.336 327.95 854.803 327.95C856.9 327.95 858.472 327.481 859.52 326.543C860.674 325.605 861.669 323.833 862.508 321.228C863.347 318.726 864.709 317.475 866.596 317.475C867.225 317.475 867.906 317.58 868.64 317.788C869.479 317.997 870.108 318.153 870.527 318.257C871.575 318.674 874.144 319.352 878.232 320.29C882.32 321.123 885.832 321.801 888.767 322.322C890.234 322.635 890.968 323.885 890.968 326.074C890.968 327.116 890.916 327.898 890.811 328.419C890.706 329.774 890.287 331.598 889.553 333.891C887.351 340.562 883.578 346.607 878.232 352.027C872.991 357.342 865.129 360 854.646 360C848.252 360 841.805 358.072 835.306 354.215C828.807 350.359 823.304 343.949 818.796 334.986C814.289 325.918 812.035 314.036 812.035 299.34C812.035 278.495 816.071 264.268 824.142 256.659C832.214 248.946 841.281 245.09 851.344 245.09Z" fill="#F95E1C"/>
<path d="M959.373 229.977C965.663 234.146 970.695 239.774 974.468 246.862C978.347 253.949 981.02 260.88 982.487 267.655C984.06 274.326 984.846 279.589 984.846 283.445C984.846 289.907 983.798 297.412 981.701 305.958C979.71 314.505 975.359 322.478 968.65 329.879C961.942 337.174 952.245 340.822 939.562 340.822C922.161 340.822 909.791 330.764 902.454 310.649C899.204 301.581 897.37 291.471 896.95 280.319C896.95 271.147 898.89 262.444 902.768 254.21C906.647 245.872 911.731 239.201 918.02 234.198C924.414 229.195 930.966 226.694 937.675 226.694C943.755 226.694 948.262 226.85 951.197 227.163C954.237 227.475 956.962 228.414 959.373 229.977ZM938.775 332.067C949.887 332.067 958.168 327.481 963.619 318.309C969.07 309.033 971.795 297.412 971.795 283.445C971.795 274.899 970.485 267.03 967.864 259.838C965.349 252.542 961.732 246.757 957.015 242.484C952.403 238.107 947.057 235.918 940.977 235.918C940.453 235.918 939.037 235.918 936.731 235.918C934.53 235.918 932.591 236.283 930.914 237.012C929.236 237.742 927.716 238.836 926.354 240.295C922.894 243.735 919.959 246.914 917.548 249.832C915.242 252.646 912.884 256.867 910.473 262.496C908.167 268.124 907.013 274.638 907.013 282.038C907.013 290.793 908.062 298.975 910.158 306.584C912.36 314.088 915.819 320.237 920.536 325.032C925.253 329.722 931.333 332.067 938.775 332.067Z" fill="#D9D9D9"/>
<path d="M320.895 47.5639C341.9 47.5639 354.799 60.3883 356.273 101.06C357.747 134.403 369.539 153.823 370.645 168.846C371.382 183.503 354.062 192.663 335.636 192.663C317.209 192.663 307.996 183.503 307.996 168.846C307.996 143.564 354.062 92.9989 311.682 92.9989C294.361 92.9989 285.148 107.289 286.254 123.045C287.728 143.564 290.307 157.487 290.307 168.846C290.307 183.503 282.568 192.663 264.142 192.663C246.085 192.663 238.346 183.503 238.346 168.846C238.346 153.823 243.137 134.403 243.137 101.06C243.137 50.4952 230.975 54.8922 230.975 36.2052C230.975 19.3503 257.509 9.09077 271.513 9.09077C285.517 9.09077 290.307 18.6174 290.307 32.9075C290.307 44.999 286.622 60.0219 285.885 82.373C285.517 86.4035 286.991 84.9378 287.728 83.1058C293.993 68.8158 303.943 47.5639 320.895 47.5639Z" fill="#FFE6E3"/>
<path d="M470.168 103.026C490.436 103.026 503.335 121.347 500.386 133.805C494.859 155.056 470.536 168.98 442.897 168.98C401.254 168.98 375.458 138.568 375.458 93.8658C375.458 42.2018 412.31 19.1179 444.371 19.1179C480.118 19.1179 500.386 44.0339 500.386 60.5224C500.386 98.2627 452.847 93.4994 430.367 107.789C420.049 114.385 421.891 125.744 432.947 125.744C441.423 125.744 446.951 103.026 470.168 103.026ZM436.86 50.1075C436.756 49.3652 435.626 49.1082 435.198 49.7235C432.423 53.7133 425.461 61.9242 414.64 62.9038C413.934 62.9677 413.581 63.9371 414.062 64.4577C420.785 71.733 420.477 85.8824 419.806 93.074C419.727 93.9166 421.171 94.4369 421.655 93.7426C425.646 88.014 434.37 77.4698 446.061 74.717C446.696 74.5675 446.918 73.7169 446.447 73.2653C439.885 66.9679 437.58 55.2587 436.86 50.1075Z" fill="#FFE6E3"/>
<path d="M782.744 67.786C782.744 89.0379 756.947 101.862 734.468 107.725C732.256 108.091 732.625 109.19 734.468 109.557C749.208 112.855 782.744 120.549 782.744 150.595C782.744 165.251 774.637 183.572 752.525 183.572C729.677 183.572 718.621 166.351 718.621 147.297C718.621 134.106 723.781 111.023 707.934 111.023C700.564 111.023 700.195 118.717 700.564 122.015C702.038 138.503 704.249 150.229 704.249 159.755C704.249 174.412 696.51 183.572 678.084 183.572C660.026 183.572 652.287 174.412 652.287 159.755C652.287 144.732 657.078 125.313 657.078 91.9691C657.078 41.4044 644.917 45.8014 644.917 27.1144C644.917 10.2595 671.45 0 685.454 0C699.458 0 704.249 9.52667 704.249 23.8167C704.249 37.0075 701.301 53.496 699.458 79.1448C699.09 87.2058 702.038 91.2363 707.934 89.0378C730.045 80.6104 709.04 38.4732 745.523 38.4732C768.74 38.4732 782.744 52.3968 782.744 67.786Z" fill="#FFE6E3"/>
<path d="M596.603 129.495C640.549 161.891 626.322 241.521 548.393 225.975C475.776 211.489 509.956 126.109 545.378 133.176C561.673 136.426 564.068 166.556 576.302 164.363C584.814 162.355 580.336 148.026 566.901 136.079C550.374 121.2 521.904 99.768 527.027 74.3816C532.239 48.5498 566.287 40.5162 594.979 46.24C677.16 62.6341 625.137 128.701 606.569 114.805C595.958 107.128 596.439 93.7882 587.583 92.0216C577.311 89.9724 571.58 111.068 596.603 129.495Z" fill="#FFE6E3"/>
<path d="M977.574 90.5645C965.619 119.091 941.236 149.262 940.796 163.151C940.286 176.041 950.57 184.183 943.813 200.307C937.229 216.017 911.056 223.612 891.05 215.324C872.295 207.554 867.007 195.659 871.057 181.325C872.72 176.191 868.73 179.876 866.613 181.425C852.246 190.029 835.308 196.598 820.299 184.557C792.018 162.166 790.935 112.225 807.741 72.1223C824.374 32.4326 858.381 9.6452 887.556 21.7322C911.313 31.5744 909.231 73.8956 904.708 104.531C903.809 109.011 906.483 109.633 907.625 105.74C911.502 91.8192 914.373 77.9667 919.224 66.3906C926.154 49.8532 938.822 42.9708 959.661 51.6044C980.5 60.2379 984.505 74.0271 977.574 90.5645ZM858.414 85.4724C858.046 84.8241 856.895 84.9751 856.707 85.6965C855.107 91.8459 849.386 108.104 832.143 117.172C831.518 117.501 831.615 118.469 832.292 118.669C850.672 124.105 861.01 139.734 864.859 146.79C865.255 147.517 866.747 147.204 866.833 146.38C867.674 138.299 871.677 120.041 890.581 113.186C891.302 112.924 891.282 111.797 890.548 111.571C871.468 105.719 861.59 91.0702 858.414 85.4724Z" fill="#FFE6E3"/>
<path d="M1005.44 128.159C1004.07 132.263 1002.01 134.959 999.255 136.247C996.519 137.486 993.258 137.479 989.47 136.224C981.409 133.554 978.722 128.211 981.407 120.196C982.799 116.044 984.854 113.372 987.573 112.181C990.292 110.989 993.594 111.037 997.479 112.324C1001.51 113.659 1004.18 115.59 1005.49 118.116C1006.85 120.659 1006.84 124.006 1005.44 128.159ZM992.874 166.157C991.806 169.344 990.164 172.636 987.947 176.032C985.73 179.428 983.181 182.124 980.3 184.12C977.468 186.132 974.571 186.647 971.609 185.666C970.783 185.393 970.079 184.837 969.497 184.001C968.962 183.18 968.905 182.142 969.326 180.887L969.52 180.307C969.925 179.422 970.669 178.569 971.753 177.748C972.838 176.927 973.534 176.058 973.841 175.141C974.084 174.416 973.744 173.579 972.821 172.63C971.947 171.697 971.105 170.747 970.295 169.782C969.211 168.511 968.482 166.902 968.11 164.954C967.753 162.959 967.996 160.706 968.837 158.195C970.228 154.043 972.283 151.371 975.003 150.179C977.722 148.988 981.023 149.036 984.908 150.323C988.939 151.658 991.61 153.589 992.921 156.115C994.281 158.658 994.265 162.005 992.874 166.157Z" fill="#FFE6E3"/>
<path d="M161.17 160.148C185.188 157.463 216.538 188.475 219.555 223.259C223.925 273.637 179.167 316.789 121.305 323.256C54.7093 330.7 7.70848 259.049 0.945643 181.084C-6.64955 93.5236 31.7911 22.0115 106.029 13.7137C173.716 6.14807 202.909 31.3457 205.562 61.9319C208.163 91.9184 193.036 120.859 154.825 125.13C101.331 131.109 79.7246 40.8756 54.0968 75.834C34.3431 102.264 63.8007 219.474 102.557 215.143C133.126 211.726 124.597 164.236 161.17 160.148Z" fill="#FFE6E3"/>
</svg>
