<svg width="169" height="60" viewBox="0 0 169 60" fill="none" xmlns="http://www.w3.org/2000/svg">
<path d="M44.2685 37.3115L45.9457 37.2594C46.1553 37.2594 46.3912 37.2507 46.6532 37.2333C46.9153 37.2159 47.1773 37.1986 47.4394 37.1812C48.0334 37.1291 48.5226 37.103 48.907 37.103L51.1083 37.1291C51.5101 37.1291 51.711 37.2594 51.711 37.5199V38.8228C51.711 38.9791 51.6761 39.0747 51.6062 39.1094C51.5538 39.1268 51.4315 39.1355 51.2393 39.1355C51.0122 39.1355 50.8113 39.1268 50.6366 39.1094L48.9594 39.0833C48.2955 39.0833 47.6491 39.1181 47.0201 39.1876L45.8551 39.2585C45.7854 39.2627 45.7278 39.3145 45.7163 39.3834L45.6574 39.7348C45.6224 40.1169 45.605 40.4209 45.605 40.6467L45.5788 42.9658L45.5526 44.2947V44.7701C45.5526 44.8529 45.6198 44.9201 45.7026 44.9195C45.9942 44.9174 46.215 44.9089 46.365 44.894L47.6229 44.8679L48.6711 44.8419C48.9157 44.8245 49.2564 44.8158 49.6931 44.8158C49.9727 44.8158 50.1561 44.8506 50.2435 44.9201C50.3483 44.9895 50.4007 45.1025 50.4007 45.2588L50.3745 46.1187C50.3745 46.2576 50.3308 46.3532 50.2435 46.4053C50.1736 46.4574 50.0164 46.4835 49.7718 46.4835C49.4573 46.4835 49.1952 46.4748 48.9856 46.4574L47.9373 46.4313H45.6501C45.5673 46.4313 45.5001 46.4986 45.5005 46.5814C45.5023 46.9568 45.5109 47.2369 45.5264 47.4215L45.5526 49.0631L45.5264 50.3399C45.4914 50.8957 45.4739 51.3213 45.4739 51.6166L45.5001 54.6913C45.5001 54.9172 45.4477 55.0735 45.3429 55.1604C45.2556 55.2472 45.1071 55.2906 44.8974 55.2906C44.81 55.2906 44.6091 55.2733 44.2947 55.2385C44.1374 55.2212 43.8142 55.2125 43.325 55.2125L41.412 55.2385C41.2323 55.2223 41.1136 55.1908 41.0562 55.1442C41.0485 55.138 41.0422 55.1302 41.0372 55.1217C41.0075 55.0712 40.9927 55.0059 40.9927 54.9258C40.9927 54.8216 40.9927 54.7521 40.9927 54.7174L40.9665 53.3364C40.9665 53.0932 40.9577 52.8847 40.9403 52.711L40.9141 50.9392C40.9141 50.6786 40.9228 50.418 40.9403 50.1575C40.9752 49.8795 40.9927 49.6798 40.9927 49.5582C41.0451 49.1586 41.0713 48.707 41.0713 48.2032L41.0451 45.2327L41.0713 43.513C41.1062 42.7139 41.1237 42.1059 41.1237 41.689C41.1237 40.7162 41.1062 39.5176 41.0713 38.0932C41.0713 37.7805 41.1062 37.5721 41.1761 37.4678C41.2635 37.3636 41.3858 37.3115 41.543 37.3115C41.6478 37.3115 41.7527 37.3202 41.8575 37.3375C41.9798 37.3549 42.1195 37.3636 42.2768 37.3636L44.2685 37.3115Z" fill="#F02F46"/>
<path d="M66.7522 54.7713C67.2239 55.2403 67.4598 55.5617 67.4598 55.7354C67.4598 55.7687 67.4196 55.826 67.3393 55.9073C67.3323 55.9143 67.3247 55.9206 67.3163 55.9257C67.1513 56.0246 66.7624 56.0741 66.1495 56.0741C65.6952 56.0741 65.407 56.0394 65.2847 55.9699C65.1624 55.9178 65.0663 55.8223 64.9964 55.6833C64.944 55.5443 64.9003 55.4401 64.8654 55.3706C64.813 55.2664 64.5946 54.9711 64.2102 54.4847C63.8433 53.9809 63.5638 53.5987 63.3716 53.3382C62.4457 52.1569 61.642 51.0886 60.9606 50.1332C60.5413 49.5426 59.7639 48.5264 58.6283 47.0845L58.209 46.5634L56.6302 44.6069C56.546 44.5025 56.3776 44.5526 56.3642 44.686L56.2959 45.3648C56.226 45.8859 56.2086 46.5113 56.2435 47.2409C56.2959 47.7273 56.3309 48.9867 56.3483 51.0191C56.3658 53.0515 56.3746 54.5368 56.3746 55.4748C56.3746 55.7528 56.2697 55.9265 56.0601 55.996C55.8504 56.0828 55.6058 56.1262 55.3263 56.1262C55.204 56.1262 55.1254 56.0741 55.0905 55.9699C55.0565 55.8687 55.0308 55.7593 55.0134 55.6418C55.0123 55.6347 55.0118 55.6276 55.0118 55.6204C55.0118 55.505 55.0118 55.4304 55.0118 55.3967C54.9769 55.1187 54.9594 54.7105 54.9594 54.172C54.9594 53.8246 54.9682 53.564 54.9856 53.3903C55.0031 52.4522 55.0293 50.8194 55.0643 48.4916C55.0992 46.1465 55.1167 44.0446 55.1167 42.1859C55.1167 40.1882 55.0905 39.0243 55.038 38.6943C55.0206 38.5553 55.0118 38.3729 55.0118 38.1471C55.0118 37.8865 55.0468 37.7215 55.1167 37.652C55.204 37.5825 55.3263 37.5478 55.4836 37.5478C55.833 37.5478 56.1736 37.5565 56.5056 37.5738L59.3621 37.626C60.4103 37.626 61.5022 37.8083 62.6378 38.1731C63.7734 38.5379 64.3412 39.2154 64.3412 40.2056C64.3412 41.1436 63.9918 41.8732 63.293 42.3943C62.5942 42.9155 61.808 43.2716 60.9344 43.4627C60.0784 43.6537 59.3271 43.7493 58.6807 43.7493C58.4536 43.7493 58.3313 43.7406 58.3138 43.7232C58.4186 43.8275 59.1087 44.7481 60.3841 46.4852C64.2277 51.6097 66.3504 54.3718 66.7522 54.7713ZM56.3289 42.5245C56.3252 42.6098 56.3934 42.681 56.4788 42.6807C56.9784 42.6793 57.363 42.6707 57.6324 42.6549C58.6458 42.6202 59.4319 42.5507 59.991 42.4465C60.7947 42.3075 61.3974 42.1164 61.7992 41.8732C62.2185 41.63 62.4282 41.2478 62.4282 40.7267C62.4282 40.3793 62.2447 40.084 61.8779 39.8408C61.511 39.5802 61.0655 39.3891 60.5413 39.2675C60.0347 39.1286 59.5892 39.0591 59.2048 39.0591C58.7681 39.0417 58.1566 39.033 57.3704 39.033H56.623C56.5427 39.033 56.4766 39.0963 56.4732 39.1766L56.3289 42.5245Z" fill="#F95E1C"/>
<path d="M83.0847 54.7738C83.0926 54.7833 83.0994 54.7933 83.1048 54.8043C83.1867 54.9687 83.2276 55.0761 83.2276 55.1265C83.2276 55.2655 83.0703 55.335 82.7559 55.335H80.869C80.7991 55.335 80.7293 55.2742 80.6594 55.1526C80.5895 55.031 80.5283 54.9094 80.4759 54.7878C80.4235 54.6662 80.3798 54.562 80.3449 54.4751C80.2575 54.3014 80.0916 53.9019 79.847 53.2765C79.6198 52.6511 79.4452 52.1561 79.3229 51.7913C79.2704 51.6176 79.1656 51.3657 79.0084 51.0356C78.8547 50.696 78.7427 50.456 78.6725 50.3155C78.6693 50.3092 78.6665 50.3026 78.6643 50.2958C78.598 50.1003 78.5317 49.9673 78.4655 49.8968C78.4606 49.8916 78.456 49.8862 78.4514 49.8808C78.3984 49.8168 78.3133 49.7849 78.196 49.7849C78.0737 49.7849 77.9165 49.7936 77.7243 49.811C77.5529 49.828 77.3648 49.845 77.1598 49.8621C77.1518 49.8627 77.1439 49.8641 77.1361 49.8658C76.9847 49.8987 76.5519 49.9152 75.8374 49.9152C75.3308 49.9152 74.8329 49.9326 74.3437 49.9673C74.1864 49.9847 73.9069 49.9934 73.5051 49.9934L72.1161 49.9673C72.0334 49.9673 71.9663 49.9985 71.9149 50.0609C71.9092 50.0678 71.9044 50.0756 71.9005 50.0837C71.8686 50.1511 71.8443 50.2339 71.8279 50.3321C71.8104 50.4189 71.7929 50.4884 71.7755 50.5405L71.6182 51.192C71.5658 51.4352 71.4959 51.7218 71.4086 52.0518C71.3387 52.3645 71.2776 52.6598 71.2251 52.9378L70.9369 54.0582L70.7272 54.8139C70.6748 55.0223 70.6224 55.1613 70.57 55.2308C70.535 55.2829 70.4739 55.3089 70.3865 55.3089H68.8404C68.753 55.3089 68.7093 55.2742 68.7093 55.2047C68.7093 55.17 68.7443 55.0484 68.8142 54.8399C68.9539 54.5098 69.0762 54.1798 69.181 53.8497C69.8275 51.6957 70.2118 50.2887 70.3341 49.6286C70.4914 48.76 70.8146 47.6396 71.3038 46.2672C71.461 45.6766 71.6095 45.1381 71.7493 44.6517C71.8017 44.4085 71.8803 44.1132 71.9851 43.7658C72.3171 42.5498 72.649 41.412 72.9809 40.3524L73.6361 38.2678C73.7759 37.7293 73.9506 37.1734 74.1602 36.6002C74.2624 36.3463 74.3811 36.2821 74.5164 36.4075C74.5236 36.4142 74.5313 36.4205 74.5393 36.4262C74.6381 36.4969 74.7126 36.6157 74.763 36.7826C74.8154 36.9563 74.8503 37.0779 74.8678 37.1474C74.9202 37.3558 75.3832 38.3981 76.2567 40.2742C76.6061 40.9864 76.9818 41.9158 77.3836 43.0623C77.5583 43.566 78.0388 44.6517 78.8249 46.3194C79.2268 47.1358 79.4888 47.7004 79.6111 48.013C79.8906 48.621 80.6419 50.0976 81.8648 52.4427L82.1793 53.0941C82.5737 53.9635 82.8755 54.5234 83.0847 54.7738ZM76.2305 46.1891C76.3528 46.1717 76.4576 46.163 76.545 46.163C76.6323 46.163 76.7022 46.1543 76.7546 46.137C76.8071 46.1196 76.8333 46.0935 76.8333 46.0588C76.8333 46.024 76.8071 45.9546 76.7546 45.8503C76.6673 45.694 76.4664 45.2597 76.1519 44.5475C75.8374 43.8179 75.619 43.2707 75.4967 42.9059C75.322 42.489 75.1823 42.1416 75.0774 41.8636C74.9901 41.5857 74.9202 41.3946 74.8678 41.2904C74.8342 41.207 74.7926 41.1236 74.743 41.0402C74.7389 41.0333 74.7353 41.0261 74.7322 41.0186C74.6988 40.937 74.6654 40.8712 74.6319 40.8214C74.597 40.7693 74.5621 40.7432 74.5271 40.7432C74.4747 40.7432 74.4136 40.8735 74.3437 41.1341C74.2913 41.3946 74.2476 41.5944 74.2126 41.7334C73.8982 42.7409 73.671 43.5052 73.5313 44.0264C73.4614 44.2869 73.3566 44.6083 73.2168 44.9905C73.0945 45.3552 73.0072 45.6071 72.9547 45.7461C72.9023 45.9198 72.8761 46.0588 72.8761 46.163C72.8761 46.2672 72.9547 46.3194 73.112 46.3194C73.4789 46.3194 74.0379 46.3107 74.7892 46.2933C75.5579 46.2585 76.0383 46.2238 76.2305 46.1891Z" fill="#D9D9D9"/>
<path d="M88.7043 39.6866C89.0886 39.6866 89.3682 39.73 89.5429 39.8168C89.7351 39.8863 89.8836 40.0166 89.9884 40.2077C90.1631 40.5725 90.3815 41.0415 90.6435 41.6148L91.6132 43.6993L92.8449 46.3831C93.072 46.8695 93.369 47.5123 93.7359 48.3113C94.1028 49.1104 94.3648 49.6663 94.5221 49.979C94.8191 50.587 95.0112 50.9604 95.0986 51.0994L96.338 53.5222C96.411 53.665 96.627 53.609 96.6214 53.4487L96.5924 52.6107L96.4875 50.0571V49.2754C96.4875 48.32 96.505 47.3559 96.5399 46.3831C96.5399 45.6536 96.5312 45.0629 96.5137 44.6113L96.4875 42.631L96.5924 40.1295C96.5924 39.869 96.7234 39.7387 96.9854 39.7387C97.0728 39.7387 97.2475 39.7647 97.5096 39.8168C97.6668 39.8516 97.8328 39.869 98.0075 39.869C98.1822 39.869 98.322 39.869 98.4268 39.869C98.5532 39.869 98.6368 39.8832 98.6774 39.9116C98.6855 39.9173 98.6931 39.9236 98.7008 39.9298C98.7452 39.9656 98.7675 40.0235 98.7675 40.1035C98.7675 40.173 98.7587 40.2511 98.7413 40.338C98.7238 40.4248 98.7151 40.5204 98.7151 40.6246L98.6888 42.8655L98.6364 48.129L98.6102 48.8846C98.6102 49.4752 98.619 50.0137 98.6364 50.5001C98.6539 50.9865 98.6714 51.386 98.6888 51.6987C98.7412 52.4457 98.7675 53.071 98.7675 53.5748C98.7675 53.5053 98.7937 54.5389 98.8461 56.6756L98.8985 58.1347V58.1869C98.8985 58.5285 98.7379 58.6854 98.4169 58.6574C98.4061 58.6565 98.3954 58.654 98.385 58.6513C98.3287 58.637 98.2291 58.6298 98.0861 58.6298L97.3261 58.6559H97.1689C97.0516 58.6559 96.9583 58.6319 96.8893 58.5839C96.8834 58.5799 96.8781 58.5753 96.8733 58.5701C96.8195 58.5121 96.7258 58.367 96.5924 58.1347C96.5399 58.0131 96.47 57.8394 96.3827 57.6136C96.2953 57.3878 96.1905 57.1359 96.0682 56.858C95.317 54.9819 94.7754 53.7051 94.4434 53.0276C94.0591 52.298 93.0895 50.2048 91.5346 46.7479C91.1851 46.0357 90.792 45.2801 90.3553 44.481L89.8955 43.6613C89.8187 43.5244 89.6098 43.5825 89.6148 43.7395L89.6739 45.6014L89.7001 47.1388C89.7351 48.2853 89.7525 49.0409 89.7525 49.4057C89.7525 50.8302 89.7787 52.2633 89.8312 53.7051L89.8574 55.7375C89.8574 56.1023 89.8748 56.6321 89.9098 57.327L89.9622 58.239V58.2911C89.9622 58.4648 89.9185 58.5777 89.8312 58.6298C89.7438 58.6819 89.6215 58.708 89.4643 58.708L88.8877 58.734C88.5208 58.7862 88.1277 58.8122 87.7084 58.8122C87.2193 58.8122 86.8174 58.8209 86.503 58.8383L85.1664 58.8643C84.9044 58.8643 84.7297 58.8122 84.6423 58.708C84.555 58.6211 84.5025 58.5169 84.4851 58.3953C84.4676 58.2737 84.4501 58.1868 84.4327 58.1347C84.3628 57.8221 84.3278 57.4399 84.3278 56.9882C84.3278 56.5713 84.3366 56.2152 84.354 55.9199C84.354 55.0166 84.3715 53.9657 84.4064 52.7671C84.4414 51.5511 84.4851 50.6825 84.5375 50.1614L84.6685 48.3113C84.8782 45.4277 84.983 43.8035 84.983 43.4387C84.983 42.0664 85.0092 41.0415 85.0616 40.364C85.0965 39.895 85.3411 39.6605 85.7954 39.6605C85.9351 39.6605 86.0662 39.6692 86.1885 39.6866C86.3108 39.7039 86.4069 39.7126 86.4768 39.7126L88.7043 39.6866Z" fill="#F02F46"/>
<path d="M107.136 36.8356C108.569 36.8356 109.652 37.0962 110.386 37.6173C111.12 38.1211 111.626 38.5901 111.906 39.0244C112.203 39.4413 112.386 39.7018 112.456 39.8061C112.631 40.0319 112.718 40.2056 112.718 40.3272C112.718 40.4314 112.683 40.5183 112.613 40.5878C112.544 40.6572 112.456 40.718 112.351 40.7702C112.257 40.8173 112.19 40.8574 112.153 40.8903C112.145 40.8968 112.138 40.9031 112.129 40.9086C111.921 41.0479 111.646 41.2623 111.303 41.5518C111.146 41.6734 110.91 41.8558 110.596 42.099C110.31 42.3166 110.113 42.4535 110.005 42.5098C109.997 42.514 109.989 42.5187 109.982 42.5239C109.916 42.5707 109.849 42.5941 109.783 42.5941C109.661 42.5941 109.547 42.5246 109.443 42.3857C109.338 42.2467 109.268 42.1512 109.233 42.099C109.198 42.0469 109.102 41.934 108.945 41.7603C108.805 41.5866 108.621 41.4389 108.394 41.3173C108.167 41.1957 107.914 41.1349 107.634 41.1349C107.11 41.1349 106.7 41.4737 106.403 42.1512C106.106 42.8286 105.957 44.0359 105.957 45.7731C105.957 46.9195 106.053 47.8576 106.245 48.5872C106.438 49.3168 106.665 49.8466 106.927 50.1766C107.206 50.4893 107.468 50.6457 107.713 50.6457C108.062 50.6457 108.324 50.5675 108.499 50.4111C108.691 50.2548 108.857 49.9595 108.997 49.5252C109.137 49.1083 109.364 48.8999 109.678 48.8999C109.783 48.8999 109.897 48.9172 110.019 48.952C110.159 48.9867 110.264 49.0128 110.334 49.0301C110.508 49.0996 110.936 49.2125 111.618 49.3689C112.299 49.5078 112.884 49.6208 113.373 49.7076C113.618 49.7597 113.74 49.9682 113.74 50.333C113.74 50.5067 113.732 50.637 113.714 50.7238C113.697 50.9497 113.627 51.2537 113.504 51.6358C113.138 52.7476 112.509 53.7551 111.618 54.6584C110.744 55.5443 109.434 55.9873 107.687 55.9873C106.621 55.9873 105.547 55.6659 104.463 55.0232C103.38 54.3805 102.463 53.3121 101.712 51.8182C100.96 50.3069 100.585 48.3266 100.585 45.8773C100.585 42.403 101.257 40.0319 102.603 38.7638C103.948 37.4783 105.459 36.8356 107.136 36.8356Z" fill="#F95E1C"/>
<path d="M118.044 40.3793C117.991 40.7615 117.948 41.7429 117.913 43.3237C117.913 43.8101 117.878 45.0434 117.808 47.0238C117.738 48.9346 117.703 50.0985 117.703 50.5154C117.703 51.5229 117.721 52.7997 117.756 54.3457C117.791 55.8744 117.826 56.7864 117.86 57.0817C117.878 57.1859 117.887 57.3075 117.887 57.4464C117.887 57.5599 117.864 57.6432 117.818 57.6961C117.812 57.7036 117.805 57.7112 117.799 57.7191C117.763 57.7672 117.705 57.8153 117.625 57.8634C117.52 57.9328 117.249 57.9676 116.812 57.9676C116.742 57.9676 116.629 57.9676 116.472 57.9676C116.332 57.9676 116.244 57.9502 116.209 57.9155C116.175 57.8807 116.157 57.8112 116.157 57.707L116.183 56.8732L116.236 53.4598L116.288 47.9879C116.288 47.4667 116.323 46.2855 116.393 44.4441C116.41 44.0099 116.437 43.3063 116.472 42.3335C116.506 41.3631 116.506 40.7848 116.474 40.5986C116.472 40.5912 116.471 40.584 116.471 40.5764L116.445 40.0405C116.445 39.5889 116.585 39.3631 116.865 39.3631L117.834 39.3891C118.009 39.3891 118.096 39.5107 118.096 39.7539C118.096 39.8408 118.088 39.945 118.07 40.0666C118.053 40.1708 118.044 40.2751 118.044 40.3793Z" fill="#D9D9D9"/>
<path d="M126.895 35.6495C128.555 35.6495 129.918 35.9796 130.983 36.6397C132.066 37.2824 132.905 37.8991 133.499 38.4897C133.569 38.5592 133.604 38.6374 133.604 38.7242C133.604 38.7763 133.578 38.8458 133.525 38.9327C133.494 38.9955 133.469 39.0441 133.452 39.0785C133.448 39.0855 133.444 39.0922 133.44 39.0986C133.352 39.2218 133.205 39.4358 133.001 39.7404C132.809 40.0357 132.652 40.2529 132.529 40.3919C132.477 40.4613 132.416 40.5395 132.346 40.6264C132.298 40.6905 132.249 40.7398 132.201 40.7743C132.193 40.78 132.185 40.7864 132.178 40.7925C132.141 40.8207 132.084 40.8348 132.005 40.8348C131.971 40.8348 131.887 40.7848 131.752 40.6849C131.746 40.6806 131.741 40.676 131.736 40.671C131.616 40.5526 131.496 40.4509 131.376 40.3658C130.678 39.7578 129.996 39.2367 129.332 38.8024C128.668 38.3681 128.031 38.151 127.419 38.151C126.93 38.151 126.528 38.2639 126.214 38.4897C125.899 38.6982 125.742 39.1846 125.742 39.9489C125.742 40.6958 126.022 41.2778 126.581 41.6947C127.14 42.1116 127.882 42.5111 128.808 42.8933C128.896 42.928 129.402 43.1452 130.328 43.5447C131.272 43.9443 132.101 44.7086 132.818 45.8377C133.551 46.9668 133.918 48.3131 133.918 49.8765C133.918 51.5441 133.289 52.7949 132.031 53.6287C130.774 54.4625 129.035 54.8794 126.817 54.8794C124.301 54.8794 122.702 54.4017 122.021 53.4463C121.339 52.4735 120.981 51.9697 120.946 51.935C120.876 51.8481 120.841 51.7613 120.841 51.6744C120.841 51.6223 120.911 51.5094 121.051 51.3357C121.278 51.023 121.61 50.6495 122.047 50.2152C122.117 50.1458 122.187 50.111 122.257 50.111C122.344 50.111 122.44 50.1805 122.545 50.3195C122.65 50.4411 122.737 50.5366 122.807 50.6061C123.838 51.631 125.008 52.1434 126.319 52.1434C126.982 52.1434 127.559 52.0219 128.048 51.7787C128.537 51.5181 128.782 51.0404 128.782 50.3455C128.782 49.1469 127.83 47.8701 125.925 46.5152C125.611 46.3067 125.314 46.133 125.034 45.9941C124.301 45.5945 123.672 45.2037 123.148 44.8215C122.624 44.4393 122.161 43.9356 121.759 43.3102C121.357 42.6848 121.156 41.9553 121.156 41.1214C121.156 40.0792 121.479 39.1411 122.126 38.3073C122.789 37.4735 123.576 36.8221 124.484 36.3531C125.41 35.884 126.214 35.6495 126.895 35.6495Z" fill="#F02F46"/>
<path d="M142.766 40.8483C144.198 40.8483 145.281 41.1089 146.015 41.63C146.749 42.1338 147.256 42.6028 147.535 43.0371C147.832 43.454 148.016 43.7145 148.086 43.8188C148.26 44.0446 148.348 44.2183 148.348 44.3399C148.348 44.4441 148.313 44.531 148.243 44.6005C148.173 44.6699 148.086 44.7307 147.981 44.7829C147.886 44.83 147.82 44.8701 147.782 44.903C147.775 44.9095 147.767 44.9158 147.759 44.9213C147.551 45.0606 147.275 45.275 146.932 45.5646C146.775 45.6862 146.539 45.8686 146.225 46.1118C145.939 46.3293 145.742 46.4662 145.634 46.5226C145.626 46.5267 145.619 46.5314 145.611 46.5366C145.545 46.5834 145.479 46.6068 145.413 46.6068C145.29 46.6068 145.177 46.5374 145.072 46.3984C144.967 46.2594 144.897 46.1639 144.862 46.1118C144.827 46.0596 144.731 45.9467 144.574 45.773C144.434 45.5993 144.251 45.4517 144.024 45.3301C143.796 45.2085 143.543 45.1477 143.264 45.1477C142.739 45.1477 142.329 45.4864 142.032 46.1639C141.735 46.8413 141.586 48.0486 141.586 49.7858C141.586 50.9323 141.683 51.8703 141.875 52.5999C142.067 53.3295 142.294 53.8593 142.556 54.1893C142.836 54.502 143.098 54.6584 143.342 54.6584C143.692 54.6584 143.954 54.5802 144.128 54.4239C144.321 54.2675 144.487 53.9722 144.626 53.5379C144.766 53.121 144.993 52.9126 145.308 52.9126C145.413 52.9126 145.526 52.9299 145.648 52.9647C145.788 52.9994 145.893 53.0255 145.963 53.0428C146.138 53.1123 146.566 53.2252 147.247 53.3816C147.928 53.5206 148.514 53.6335 149.003 53.7203C149.247 53.7724 149.37 53.9809 149.37 54.3457C149.37 54.5194 149.361 54.6497 149.343 54.7365C149.326 54.9624 149.256 55.2664 149.134 55.6485C148.767 56.7603 148.138 57.7678 147.247 58.6711C146.373 59.557 145.063 60 143.316 60C142.25 60 141.176 59.6786 140.093 59.0359C139.009 58.3932 138.092 57.3248 137.341 55.8309C136.59 54.3196 136.214 52.3393 136.214 49.89C136.214 46.4158 136.887 44.0446 138.232 42.7765C139.577 41.491 141.088 40.8483 142.766 40.8483Z" fill="#F95E1C"/>
<path d="M160.771 38.3295C161.819 39.0243 162.657 39.9624 163.286 41.1436C163.933 42.3248 164.378 43.48 164.623 44.6092C164.885 45.7209 165.016 46.5982 165.016 47.2409C165.016 48.3179 164.841 49.5686 164.492 50.9931C164.16 52.4175 163.435 53.7464 162.317 54.9797C161.199 56.1957 159.583 56.8037 157.469 56.8037C154.568 56.8037 152.507 55.1274 151.284 51.7748C150.742 50.2635 150.437 48.5785 150.367 46.7198C150.367 45.1911 150.69 43.7406 151.336 42.3683C151.983 40.9786 152.83 39.8668 153.878 39.033C154.944 38.1992 156.036 37.7823 157.154 37.7823C158.167 37.7823 158.919 37.8083 159.408 37.8605C159.915 37.9126 160.369 38.0689 160.771 38.3295ZM157.338 55.3445C159.189 55.3445 160.57 54.5802 161.478 53.0515C162.387 51.5055 162.841 49.5686 162.841 47.2409C162.841 45.8164 162.622 44.5049 162.186 43.3063C161.766 42.0903 161.164 41.1262 160.377 40.414C159.609 39.6844 158.718 39.3196 157.704 39.3196C157.617 39.3196 157.381 39.3196 156.997 39.3196C156.63 39.3196 156.307 39.3804 156.027 39.502C155.748 39.6236 155.494 39.806 155.267 40.0492C154.691 40.6225 154.202 41.1523 153.8 41.6387C153.415 42.1077 153.022 42.8112 152.62 43.7493C152.236 44.6873 152.044 45.773 152.044 47.0064C152.044 48.4656 152.219 49.8292 152.568 51.0973C152.935 52.348 153.511 53.3729 154.298 54.172C155.084 54.9537 156.097 55.3445 157.338 55.3445Z" fill="#D9D9D9"/>
<path d="M54.3574 7.92732C57.8584 7.92732 60.0081 10.0647 60.2538 16.8433C60.4995 22.4006 62.4649 25.6372 62.6492 28.141C62.772 30.5837 59.8853 32.1105 56.8143 32.1105C53.7432 32.1105 52.2077 30.5837 52.2077 28.141C52.2077 23.9273 59.8853 15.4998 52.8219 15.4998C49.9352 15.4998 48.3997 17.8815 48.5839 20.5074C48.8296 23.9273 49.2596 26.2479 49.2596 28.141C49.2596 30.5837 47.9697 32.1105 44.8987 32.1105C41.8891 32.1105 40.5993 30.5837 40.5993 28.141C40.5993 25.6372 41.3978 22.4006 41.3978 16.8433C41.3978 8.41587 39.3709 9.14869 39.3709 6.0342C39.3709 3.22505 43.7932 1.51513 46.1271 1.51513C48.4611 1.51513 49.2596 3.10291 49.2596 5.48458C49.2596 7.49984 48.6454 10.0036 48.5225 13.7288C48.4611 14.4006 48.7068 14.1563 48.8296 13.851C49.8738 11.4693 51.5321 7.92732 54.3574 7.92732Z" fill="#FFE6E3"/>
<path d="M79.2363 17.171C82.6144 17.171 84.7641 20.2244 84.2727 22.3008C83.3514 25.8427 79.2977 28.1633 74.6912 28.1633C67.7507 28.1633 63.4513 23.0947 63.4513 15.6443C63.4513 7.03363 69.5933 3.18632 74.9369 3.18632C80.8946 3.18632 84.2727 7.33898 84.2727 10.0871C84.2727 16.3771 76.3495 15.5832 72.6029 17.9649C70.8831 19.0641 71.1902 20.9573 73.0328 20.9573C74.4455 20.9573 75.3668 17.171 79.2363 17.171ZM73.6972 8.43627C73.6752 8.28799 73.4459 8.23553 73.3585 8.35732C72.8726 9.03441 71.7548 10.2915 70.0524 10.4769C69.9114 10.4923 69.8397 10.6892 69.933 10.796C70.961 11.9734 70.9552 14.1458 70.8557 15.3634C70.8419 15.5321 71.1382 15.6397 71.2368 15.5022C71.9294 14.5364 73.3221 12.925 75.1633 12.4662C75.2898 12.4347 75.3347 12.2632 75.2423 12.1712C74.2138 11.1468 73.8284 9.32125 73.6972 8.43627Z" fill="#FFE6E3"/>
<path d="M131.332 11.2977C131.332 14.8396 127.033 16.977 123.286 17.9541C122.918 18.0152 122.979 18.1984 123.286 18.2595C125.743 18.8091 131.332 20.0915 131.332 25.0991C131.332 27.5419 129.981 30.5953 126.296 30.5953C122.488 30.5953 120.645 27.7251 120.645 24.5495C120.645 22.3511 121.505 18.5037 118.864 18.5037C117.636 18.5037 117.574 19.7862 117.636 20.3358C117.881 23.0839 118.25 25.0381 118.25 26.6259C118.25 29.0686 116.96 30.5953 113.889 30.5953C110.879 30.5953 109.59 29.0686 109.59 26.6259C109.59 24.1221 110.388 20.8854 110.388 15.3282C110.388 6.90073 108.361 7.63356 108.361 4.51907C108.361 1.70992 112.783 0 115.117 0C117.451 0 118.25 1.58778 118.25 3.96945C118.25 6.16792 117.758 8.91599 117.451 13.1908C117.39 14.5343 117.881 15.206 118.864 14.8396C122.549 13.4351 119.048 6.41219 125.129 6.41219C128.998 6.41219 131.332 8.73279 131.332 11.2977Z" fill="#FFE6E3"/>
<path d="M100.309 21.5826C107.633 26.9818 105.262 40.2535 92.2738 37.6624C80.171 35.2481 85.8676 21.0182 91.7714 22.1959C94.4871 22.7377 94.8863 27.7593 96.9253 27.3938C98.3439 27.0591 97.5976 24.6709 95.3586 22.6799C92.604 20.2 87.859 16.628 88.7128 12.3969C89.5816 8.09163 95.2562 6.75271 100.038 7.70667C113.735 10.439 105.064 21.4502 101.97 19.1341C100.201 17.8547 100.282 15.6314 98.8056 15.3369C97.0935 14.9954 96.1383 18.5113 100.309 21.5826Z" fill="#FFE6E3"/>
<path d="M163.804 15.0941C161.812 19.8486 157.748 24.877 157.674 27.1919C157.589 29.3401 159.303 30.6972 158.177 33.3845C157.08 36.0029 152.718 37.2687 149.383 35.8873C146.257 34.5923 145.376 32.6099 146.051 30.2209C146.328 29.3652 145.663 29.9793 145.311 30.2375C142.916 31.6715 140.093 32.7663 137.591 30.7595C132.878 27.0276 132.697 18.7042 135.499 12.0204C138.271 5.40543 143.939 1.60753 148.801 3.62203C152.761 5.26241 152.413 12.3159 151.66 17.4218C151.51 18.1684 151.955 18.2722 152.146 17.6233C152.792 15.3032 153.27 12.9944 154.079 11.0651C155.234 8.30887 157.345 7.1618 160.819 8.60073C164.292 10.0397 164.959 12.3379 163.804 15.0941ZM143.985 14.3176C143.911 14.1887 143.677 14.2205 143.638 14.3643C143.345 15.4369 142.381 18.0172 139.628 19.4958C139.503 19.5626 139.522 19.7571 139.657 19.7984C142.582 20.6927 144.271 23.134 144.954 24.3484C145.035 24.4928 145.342 24.4297 145.362 24.2652C145.53 22.8747 146.239 20.0273 149.216 18.8972C149.36 18.8427 149.356 18.6138 149.21 18.5672C146.167 17.5988 144.55 15.2892 143.985 14.3176Z" fill="#FFE6E3"/>
<path d="M168.449 21.3598C168.22 22.0438 167.876 22.4931 167.417 22.7078C166.962 22.9144 166.418 22.9131 165.787 22.704C164.443 22.259 163.995 21.3685 164.443 20.0327C164.675 19.3406 165.017 18.8953 165.47 18.6968C165.924 18.4982 166.474 18.5062 167.121 18.7207C167.793 18.9432 168.238 19.265 168.457 19.6861C168.684 20.1098 168.681 20.6677 168.449 21.3598ZM166.354 27.6929C166.176 28.224 165.902 28.7726 165.533 29.3386C165.163 29.9046 164.739 30.3539 164.258 30.6866C163.786 31.022 163.304 31.1079 162.81 30.9443C162.672 30.8988 162.555 30.8062 162.458 30.6668C162.369 30.53 162.359 30.357 162.429 30.1478L162.462 30.0512C162.529 29.9037 162.653 29.7615 162.834 29.6247C163.015 29.4878 163.131 29.343 163.182 29.1901C163.222 29.0694 163.166 28.9299 163.012 28.7717C162.866 28.6161 162.726 28.4579 162.591 28.297C162.41 28.0851 162.289 27.8169 162.227 27.4924C162.167 27.1598 162.208 26.7843 162.348 26.3658C162.58 25.6737 162.922 25.2284 163.375 25.0299C163.829 24.8313 164.379 24.8393 165.026 25.0538C165.698 25.2763 166.143 25.5981 166.362 26.0192C166.589 26.4429 166.586 27.0008 166.354 27.6929Z" fill="#FFE6E3"/>
<path d="M27.7366 26.6913C31.7397 26.2438 36.9647 31.4125 37.4676 37.2099C38.1959 45.6061 30.7361 52.7981 21.0925 53.876C9.99322 55.1166 2.15975 43.1748 1.03261 30.1807C-0.233258 15.5873 6.17352 3.66859 18.5465 2.28562C29.8277 1.02468 34.6931 5.22429 35.1353 10.322C35.5688 15.3197 33.0477 20.1431 26.6792 20.8549C17.7634 21.8515 14.1624 6.8126 9.89114 12.639C6.59885 17.0439 11.5085 36.5791 17.9679 35.8571C23.0626 35.2876 21.6412 27.3726 27.7366 26.6913Z" fill="#FFE6E3"/>
</svg>
